<?xml version="1.0" encoding="UTF-8" standalone="no"?>
<svg
   xmlns:dc="http://purl.org/dc/elements/1.1/"
   xmlns:cc="http://creativecommons.org/ns#"
   xmlns:rdf="http://www.w3.org/1999/02/22-rdf-syntax-ns#"
   xmlns:svg="http://www.w3.org/2000/svg"
   xmlns="http://www.w3.org/2000/svg"
   id="svg877"
   version="1.1"
   viewBox="0 0 99.015892 24.762831"
   height="24.762831mm"
   width="99.015892mm">
  <defs
     id="defs871" />
  <metadata
     id="metadata874">
    <rdf:RDF>
      <cc:Work
         rdf:about="">
        <dc:format>image/svg+xml</dc:format>
        <dc:type
           rdf:resource="http://purl.org/dc/dcmitype/StillImage" />
        <dc:title></dc:title>
      </cc:Work>
    </rdf:RDF>
  </metadata>
  <g
     transform="translate(119.05556,4.1552243)"
     id="layer1">
    <g
       id="text861"
       style="font-style:normal;font-variant:normal;font-weight:normal;font-stretch:normal;font-size:10.58333302px;line-height:1.25;font-family:'Jost*';-inkscape-font-specification:'Jost*';letter-spacing:0px;word-spacing:0px;fill:#e91e63;fill-opacity:1;stroke:#e91e63;stroke-width:0;stroke-miterlimit:4;stroke-dasharray:none;stroke-dashoffset:0;stroke-opacity:1"
       aria-label="Hackathons">
      <path
         id="path1435"
         style="font-style:italic;font-variant:normal;font-weight:bold;font-stretch:normal;font-size:14.11111069px;font-family:'Jost*';-inkscape-font-specification:'Jost* Bold Italic';fill:#e91e63;fill-opacity:1;stroke:#e91e63;stroke-width:0;stroke-miterlimit:4;stroke-dasharray:none;stroke-dashoffset:0;stroke-opacity:1"
         d="m -117.39045,2.794706 -1.66511,9.877777 h 2.34244 l 0.70556,-4.1486661 h 4.09222 l -0.70556,4.1486661 h 2.34245 l 1.69333,-9.877777 h -2.37067 l -0.60677,3.5983332 h -4.07811 l 0.62088,-3.5983332 z" />
      <path
         id="path1437"
         style="font-style:italic;font-variant:normal;font-weight:bold;font-stretch:normal;font-size:14.11111069px;font-family:'Jost*';-inkscape-font-specification:'Jost* Bold Italic';fill:#e91e63;fill-opacity:1;stroke:#e91e63;stroke-width:0;stroke-miterlimit:4;stroke-dasharray:none;stroke-dashoffset:0;stroke-opacity:1"
         d="m -108.33509,9.426928 c -0.23989,1.862667 0.77611,3.386667 2.49767,3.386667 0.90311,0 1.69333,-0.423334 2.27189,-1.100667 l -0.16934,0.959555 h 2.08845 l 1.12889,-6.4911105 h -2.10256 l -0.19755,1.1712222 c -0.33867,-0.7761111 -1.00189,-1.3123333 -2.00378,-1.3123333 -1.72156,0 -3.25967,1.4534444 -3.51367,3.3866666 z m 2.20133,0 c 0.14112,-0.9031111 0.95956,-1.6933333 1.83445,-1.6651111 0.79022,0.028222 1.21355,0.8043333 1.10067,1.6651111 -0.14112,0.917222 -0.95956,1.679222 -1.778,1.665111 -0.87489,-0.01411 -1.28412,-0.818444 -1.15712,-1.665111 z" />
      <path
         id="path1439"
         style="font-style:italic;font-variant:normal;font-weight:bold;font-stretch:normal;font-size:14.11111069px;font-family:'Jost*';-inkscape-font-specification:'Jost* Bold Italic';fill:#e91e63;fill-opacity:1;stroke:#e91e63;stroke-width:0;stroke-miterlimit:4;stroke-dasharray:none;stroke-dashoffset:0;stroke-opacity:1"
         d="m -97.742495,9.426928 c 0.155222,-0.9313333 0.987778,-1.6792222 1.989667,-1.6792222 0.691444,0 1.340555,0.3527778 1.679222,0.9454444 l 0.282222,-2.0884444 c -0.508,-0.3386666 -1.143,-0.5644444 -1.989667,-0.5644444 -2.088444,0 -3.852333,1.3828889 -4.120444,3.3866666 -0.253995,1.961444 1.143,3.386667 3.189111,3.386667 0.860778,0 1.538111,-0.225778 2.088444,-0.592667 l 0.282223,-2.060222 c -0.493889,0.536222 -1.241778,0.959555 -2.032,0.931333 -0.931334,-0.02822 -1.509889,-0.733778 -1.368778,-1.665111 z" />
      <path
         id="path1441"
         style="font-style:italic;font-variant:normal;font-weight:bold;font-stretch:normal;font-size:14.11111069px;font-family:'Jost*';-inkscape-font-specification:'Jost* Bold Italic';fill:#e91e63;fill-opacity:1;stroke:#e91e63;stroke-width:0;stroke-miterlimit:4;stroke-dasharray:none;stroke-dashoffset:0;stroke-opacity:1"
         d="m -88.081235,6.1813725 -2.596444,2.2013333 1.157111,-6.7168887 h -2.046111 l -1.862667,11.0066659 h 2.017889 l 0.564444,-3.3302217 2.046111,3.3302217 h 2.384778 l -2.314222,-3.7394439 3.245555,-2.7516666 z" />
      <path
         id="path1443"
         style="font-style:italic;font-variant:normal;font-weight:bold;font-stretch:normal;font-size:14.11111069px;font-family:'Jost*';-inkscape-font-specification:'Jost* Bold Italic';fill:#e91e63;fill-opacity:1;stroke:#e91e63;stroke-width:0;stroke-miterlimit:4;stroke-dasharray:none;stroke-dashoffset:0;stroke-opacity:1"
         d="m -85.5699,9.426928 c -0.239889,1.862667 0.776111,3.386667 2.497666,3.386667 0.903111,0 1.693333,-0.423334 2.271889,-1.100667 l -0.169333,0.959555 h 2.088444 l 1.128889,-6.4911105 h -2.102556 l -0.197555,1.1712222 c -0.338667,-0.7761111 -1.001889,-1.3123333 -2.003778,-1.3123333 -1.721555,0 -3.259666,1.4534444 -3.513666,3.3866666 z m 2.201333,0 c 0.141111,-0.9031111 0.959555,-1.6933333 1.834444,-1.6651111 0.790222,0.028222 1.213556,0.8043333 1.100667,1.6651111 -0.141111,0.917222 -0.959556,1.679222 -1.778,1.665111 -0.874889,-0.01411 -1.284111,-0.818444 -1.157111,-1.665111 z" />
      <path
         id="path1445"
         style="font-style:italic;font-variant:normal;font-weight:bold;font-stretch:normal;font-size:14.11111069px;font-family:'Jost*';-inkscape-font-specification:'Jost* Bold Italic';fill:#e91e63;fill-opacity:1;stroke:#e91e63;stroke-width:0;stroke-miterlimit:4;stroke-dasharray:none;stroke-dashoffset:0;stroke-opacity:1"
         d="m -76.938751,6.1813725 -0.310445,1.7638889 h 1.100667 l -0.804333,4.7272216 h 2.017889 l 0.818444,-4.7272216 h 1.128889 l 0.310444,-1.7638889 h -1.128889 l 0.395111,-2.2577777 h -2.046111 l -0.381,2.2577777 z" />
      <path
         id="path1447"
         style="font-style:italic;font-variant:normal;font-weight:bold;font-stretch:normal;font-size:14.11111069px;font-family:'Jost*';-inkscape-font-specification:'Jost* Bold Italic';fill:#e91e63;fill-opacity:1;stroke:#e91e63;stroke-width:0;stroke-miterlimit:4;stroke-dasharray:none;stroke-dashoffset:0;stroke-opacity:1"
         d="m -68.181482,8.7213725 -0.691444,3.9511105 h 2.102555 l 0.733778,-4.261555 c 0.197556,-1.4111111 -0.268111,-2.4553332 -1.834444,-2.4553332 -0.903111,0 -1.566334,0.4233333 -2.003778,1.0442221 l 0.917222,-5.3339998 h -2.130778 l -1.890888,11.0066659 h 2.116666 l 0.691445,-4.0216661 c 0.183444,-0.5926667 0.677333,-1.1571111 1.326444,-1.1147777 0.663222,0.042333 0.747889,0.5785555 0.663222,1.1853333 z" />
      <path
         id="path1449"
         style="font-style:italic;font-variant:normal;font-weight:bold;font-stretch:normal;font-size:14.11111069px;font-family:'Jost*';-inkscape-font-specification:'Jost* Bold Italic';fill:#e91e63;fill-opacity:1;stroke:#e91e63;stroke-width:0;stroke-miterlimit:4;stroke-dasharray:none;stroke-dashoffset:0;stroke-opacity:1"
         d="m -64.924901,9.426928 c -0.254,1.947333 1.143,3.386667 3.160889,3.386667 2.060222,0 3.824111,-1.397 4.078111,-3.386667 0.254,-1.9473333 -1.128889,-3.3866666 -3.160889,-3.3866666 -2.060222,0 -3.824111,1.397 -4.078111,3.3866666 z m 2.159,0 c 0.141111,-0.9031111 0.903111,-1.651 1.763889,-1.6368889 0.846667,0.014111 1.27,0.7902222 1.157111,1.6368889 -0.141111,0.903111 -0.903111,1.622778 -1.763889,1.608667 -0.846666,-0.01411 -1.27,-0.762 -1.157111,-1.608667 z" />
      <path
         id="path1451"
         style="font-style:italic;font-variant:normal;font-weight:bold;font-stretch:normal;font-size:14.11111069px;font-family:'Jost*';-inkscape-font-specification:'Jost* Bold Italic';fill:#e91e63;fill-opacity:1;stroke:#e91e63;stroke-width:0;stroke-miterlimit:4;stroke-dasharray:none;stroke-dashoffset:0;stroke-opacity:1"
         d="m -52.361604,8.7213725 -0.691445,3.9511105 h 2.187223 l 0.705555,-4.1768883 c 0.211667,-1.397 -0.338667,-2.4553333 -1.890889,-2.4553333 -0.903111,0 -1.552222,0.3951111 -2.003777,1.0442222 l 0.141111,-0.9031111 h -2.116667 l -1.128889,6.4911105 h 2.116667 l 0.705555,-3.9793328 c 0.112889,-0.6914444 0.592667,-1.157111 1.27,-1.157111 0.705556,0 0.790222,0.5926666 0.705556,1.1853333 z" />
      <path
         id="path1453"
         style="font-style:italic;font-variant:normal;font-weight:bold;font-stretch:normal;font-size:14.11111069px;font-family:'Jost*';-inkscape-font-specification:'Jost* Bold Italic';fill:#e91e63;fill-opacity:1;stroke:#e91e63;stroke-width:0;stroke-miterlimit:4;stroke-dasharray:none;stroke-dashoffset:0;stroke-opacity:1"
         d="m -48.457899,10.330039 -1.044222,1.382889 c 0.832556,0.677333 1.890889,1.227667 3.231444,1.227667 1.453445,0 2.469445,-0.790223 2.582334,-2.130778 0.07056,-1.1147779 -0.677334,-1.6086668 -1.608667,-1.9755557 -0.677333,-0.2681111 -1.326444,-0.4233333 -1.27,-0.8889999 0.02822,-0.254 0.296333,-0.4515556 0.677333,-0.4515556 0.592667,0 1.227667,0.4092222 1.707445,0.889 l 0.874889,-1.3687777 c -0.719667,-0.5362222 -1.580445,-0.9736667 -2.652889,-0.9736667 -1.284111,0 -2.413,0.635 -2.525889,1.8767777 -0.08467,1.1147778 0.705556,1.6792222 1.552222,1.9896666 0.691445,0.2398893 1.199445,0.4656663 1.171222,0.9172223 -0.01411,0.310444 -0.310444,0.550333 -0.691444,0.550333 -0.620889,0.02822 -1.27,-0.366889 -2.003778,-1.044222 z" />
    </g>
    <path
       id="path1231"
       d="m -30.785263,-4.1552238 c -0.0619,0 -10.691392,6.137225 -10.72235,6.190837 -0.031,0.05361 -0.031,12.3275438 0,12.3811568 0.031,0.05361 10.660438,6.190837 10.72235,6.190835 0.0619,0 10.691379,-6.137222 10.72234,-6.190835 0.031,-0.05361 0.031,-12.3275437 0,-12.3811568 -0.031,-0.05361 -10.66044,-6.190837 -10.72234,-6.190837 z m -8.923491,7.273457 h 2.017959 v 6.5189815 c 0,1.1006673 0.607121,1.8484663 1.764242,1.8484663 1.15711,0 1.763709,-0.747799 1.763709,-1.8484663 V 3.1182332 h 2.031921 v 6.6321545 c 0,2.3283333 -1.62252,3.5842763 -3.79563,3.5842763 -2.173121,0 -3.782201,-1.255943 -3.782201,-3.5842763 z m 9.634551,0 h 2.088248 v 4.0075075 l 3.513481,-4.0075075 h 2.413291 l -4.09226,4.6281425 4.289658,5.2492903 h -2.455148 l -3.669022,-4.4731113 v 4.4731113 h -2.088248 z"
       style="opacity:1;vector-effect:none;fill:#e91e63;fill-opacity:1;stroke:#e91e63;stroke-width:0;stroke-linecap:butt;stroke-linejoin:miter;stroke-miterlimit:4;stroke-dasharray:none;stroke-dashoffset:0;stroke-opacity:1;paint-order:fill markers stroke" />
  </g>
</svg>
