<?xml version="1.0" encoding="utf-8"?>
<!-- Generator: Adobe Illustrator 15.1.0, SVG Export Plug-In . SVG Version: 6.00 Build 0)  -->
<!DOCTYPE svg PUBLIC "-//W3C//DTD SVG 1.1//EN" "http://www.w3.org/Graphics/SVG/1.1/DTD/svg11.dtd">
<svg version="1.1"
	 id="svg2" inkscape:version="0.92.2 (5c3e80d, 2017-08-06)" sodipodi:docname="t-shirt_Front.svg" xmlns:svg="http://www.w3.org/2000/svg" xmlns:cc="http://creativecommons.org/ns#" xmlns:sodipodi="http://sodipodi.sourceforge.net/DTD/sodipodi-0.dtd" xmlns:inkscape="http://www.inkscape.org/namespaces/inkscape" xmlns:dc="http://purl.org/dc/elements/1.1/" xmlns:rdf="http://www.w3.org/1999/02/22-rdf-syntax-ns#"
	 xmlns="http://www.w3.org/2000/svg" xmlns:xlink="http://www.w3.org/1999/xlink" x="0px" y="0px" width="260px" height="260px"
	 viewBox="211.354 213.76 260 260" enable-background="new 211.354 213.76 260 260" xml:space="preserve">
<g>
	<g>
		<path fill="#8BD9FE" d="M368.051,442.543c-16.757,0-30.962-2.872-42.615-8.614c-11.656-5.744-21.579-13.176-29.775-22.297
			l27.318-27.624c12.928,14.439,28.862,21.657,47.805,21.657c10.196,0,17.756-2.075,22.672-6.224
			c4.918-4.149,7.376-9.655,7.376-16.52c0-5.232-1.459-9.607-4.37-13.125c-2.916-3.517-8.836-5.912-17.757-7.175l-18.848-2.438
			c-20.215-2.552-35.013-8.659-44.39-18.322c-9.381-9.664-14.068-22.516-14.068-38.564c0-8.569,1.638-16.411,4.917-23.522
			c3.279-7.111,7.965-13.219,14.068-18.324c6.099-5.105,13.564-9.074,22.4-11.9c8.832-2.825,18.891-4.238,30.186-4.238
			c14.383,0,27.043,2.284,37.971,6.842c10.928,4.558,20.305,11.217,28.137,19.971l-27.592,27.911
			c-4.553-5.224-10.063-9.506-16.526-12.844c-6.466-3.334-14.614-5.001-24.448-5.001c-9.287,0-16.211,1.621-20.762,4.865
			c-4.553,3.245-6.828,7.75-6.828,13.519c0,6.492,1.775,11.177,5.327,14.063s9.33,4.956,17.346,6.216l18.849,3.009
			c19.668,3.099,34.236,9.164,43.708,18.188c9.467,9.023,14.205,21.833,14.205,38.419c0,9.117-1.64,17.5-4.919,25.156
			c-3.276,7.658-8.057,14.223-14.34,19.689c-6.283,5.473-14.067,9.711-23.356,12.716
			C390.451,441.036,379.886,442.543,368.051,442.543z"/>
	</g>
	<g>
		<path fill="#6CA7C2" d="M418.676,334.996c-0.857-0.507-1.74-1.001-2.65-1.479v34.597h-21.348c0.67,0.533,1.286,1.088,1.783,1.687
			c0.261,0.314,0.494,0.644,0.731,0.972h21.483L418.676,334.996L418.676,334.996z"/>
		<path fill="#6CA7C2" d="M429.715,263.25c-0.695-0.557-1.416-1.081-2.129-1.613l-11.561,11.591v22.216l2.649-2.681v-18.447
			L429.715,263.25z"/>
		<path fill="#6CA7C2" d="M434.98,410.63h-53.537c-0.532-2.606-2.563-4.646-5.165-5.18c-0.059-0.013-0.118-0.007-0.177-0.019
			c-0.965,0.079-1.956,0.139-2.978,0.172c-2.29,0.668-4.153,2.524-4.664,5.025c-0.73,3.596,1.583,7.106,5.167,7.839
			c3.584,0.735,7.084-1.585,7.816-5.181h51.968C433.959,412.419,434.482,411.533,434.98,410.63z M374.953,415.945
			c-2.196,0-3.978-1.784-3.978-3.985c0-2.199,1.781-3.986,3.978-3.986c2.193,0,3.974,1.787,3.974,3.986
			C378.927,414.161,377.146,415.945,374.953,415.945z"/>
		<path fill="#6CA7C2" d="M347.258,328.252c0.532,2.607,2.566,4.647,5.168,5.178c3.583,0.735,7.084-1.585,7.815-5.178
			c0.734-3.596-1.581-7.105-5.166-7.84c-3.586-0.734-7.083,1.588-7.817,5.181h-16.032v27.062c0.864,0.396,1.746,0.777,2.65,1.146
			v-25.549H347.258z M353.751,322.936c2.194,0,3.976,1.785,3.976,3.985c0,2.202-1.782,3.989-3.976,3.989s-3.974-1.787-3.974-3.989
			C349.777,324.721,351.557,322.936,353.751,322.936z"/>
		<path fill="#6CA7C2" d="M333.876,393.938c-0.894-0.653-1.778-1.337-2.65-2.045v44.538c0.874,0.338,1.752,0.67,2.65,0.979V393.938z
			"/>
		<path fill="#6CA7C2" d="M333.876,283.075h-28.93c-0.333,0.875-0.644,1.76-0.928,2.657h27.208v18.602h-21.198V335.1
			c0.824,1.241,1.706,2.443,2.649,3.604v-31.712h21.2L333.876,283.075L333.876,283.075z"/>
		<path fill="#6CA7C2" d="M394.826,269.652c3.584,0.734,7.084-1.585,7.813-5.179c0.732-3.595-1.58-7.105-5.162-7.838
			c-3.589-0.734-7.085,1.585-7.817,5.18h-69.687c-1.004,0.857-1.962,1.746-2.889,2.659h72.575
			C390.188,267.083,392.222,269.12,394.826,269.652z M396.151,259.158c2.194,0,3.974,1.785,3.974,3.987
			c0,2.201-1.779,3.986-3.974,3.986c-2.196,0-3.974-1.785-3.974-3.986C392.177,260.943,393.955,259.158,396.151,259.158z"/>
	</g>
	<path fill="#56B0D1" d="M363.802,310.129c-6.053-7.877-14.413-12.591-25.09-14.142l-2.694-0.346
		c-5-0.572-16.145-1.597-27.122-0.888c-8.389,0.526-15.497,2.754-20.075,4.593v-59.411H248.4v202.132h40.42v-92.874
		c0-3.463,0.722-6.506,2.182-9.156c1.462-2.635,3.419-4.864,5.874-6.687c2.469-1.821,5.242-3.146,8.343-3.961
		c3.087-0.813,6.28-1.234,9.546-1.234c7.471,0,12.666,2.245,15.571,6.702c2.924,4.458,4.368,11.339,4.368,20.615v86.595h40.435
		v-89.862C375.14,333.999,371.361,319.962,363.802,310.129z"/>
	<g>
		<path fill="#5295AE" d="M262.852,327.707c-0.538-2.639-2.6-4.701-5.239-5.237c-3.636-0.744-7.184,1.603-7.927,5.237
			c-0.742,3.635,1.603,7.184,5.239,7.925c3.635,0.743,7.185-1.603,7.926-5.238h13.571v64.497h12.398v-2.687h-9.709v-64.497H262.852
			L262.852,327.707z M256.268,333.082c-2.227,0-4.031-1.806-4.031-4.031s1.805-4.031,4.031-4.031c2.225,0,4.03,1.807,4.03,4.031
			C260.299,331.276,258.493,333.082,256.268,333.082z"/>
		<path fill="#5295AE" d="M300.61,331.101v-35.249c-0.924,0.184-1.819,0.382-2.686,0.593v36.208
			C298.787,332.083,299.676,331.556,300.61,331.101z"/>
		<rect x="334.706" y="435.202" fill="#5295AE" width="40.435" height="2.687"/>
		<polygon fill="#5295AE" points="257.612,435.202 257.612,360.762 248.4,351.551 248.4,355.313 254.925,361.837 254.925,437.889 
			288.821,437.889 288.821,435.202 		"/>
		<polygon fill="#5295AE" points="279.111,308.896 279.111,244.398 288.821,244.398 288.821,241.711 276.423,241.711 
			276.423,306.208 248.4,306.208 248.4,308.896 		"/>
		<path fill="#5295AE" d="M276.426,421.627c3.635,0.744,7.184-1.602,7.925-5.238h4.47v-2.686h-4.47
			c-0.539-2.641-2.6-4.7-5.238-5.239c-3.637-0.743-7.185,1.604-7.928,5.239C270.444,417.337,272.788,420.888,276.426,421.627z
			 M277.766,411.015c2.227,0,4.033,1.807,4.033,4.031c0,2.226-1.806,4.031-4.033,4.031s-4.029-1.806-4.029-4.031
			C273.737,412.821,275.539,411.015,277.766,411.015z"/>
		<path fill="#5295AE" d="M340.921,296.4v90.563c-2.638,0.54-4.702,2.602-5.24,5.239c-0.741,3.637,1.603,7.186,5.24,7.927
			c3.634,0.741,7.183-1.604,7.926-5.24c0.743-3.636-1.604-7.183-5.239-7.926v-89.967C342.731,296.771,341.833,296.577,340.921,296.4
			z M346.295,393.548c0,2.226-1.806,4.031-4.03,4.031c-2.227,0-4.033-1.806-4.033-4.031c0-2.225,1.806-4.031,4.033-4.031
			C344.489,389.517,346.295,391.323,346.295,393.548z"/>
	</g>
</g>
</svg>
