<svg xmlns="http://www.w3.org/2000/svg" viewBox="0 0 768 768"><defs><style>.cls-1{fill:#cb0202;}.cls-2{fill:#fff;}.cls-3{fill:none;stroke:#cb0202;stroke-miterlimit:10;stroke-width:5px;}</style></defs><title>Dark BG (Transparent)</title><g id="Dark_BG_Transparent_" data-name="Dark BG (Transparent)"><path class="cls-1" d="M537.55,273.3H568.1L535.51,487.19H504.08L471.49,273.3h30.56l15.71,117.56,1.17,9h1.74l1.17-9Z"/><path class="cls-1" d="M571,273.3h31.43V487.19H571Z"/><path class="cls-2" d="M166,487.17V365.9H181.7c10.56,0,18.81,2,24.26,7.09s8.25,13,8.25,25.08c0,5.78-.5,10.07-2.31,14s-4.62,7.26-8.75,11c4.46,2.48,7.76,7.1,10.4,14.85q2,5.7,2,14.85c0,9.08-1.65,17.16-5.78,23.43S198.53,486.67,188,487.17Zm17.82-71.28c1.48,0,5,.17,7.92-1.81s5.28-5.94,5.28-14.36-2.31-12.37-5.28-14.35-6.44-1.82-7.92-1.82Zm0,53.62c1.48,0,5,.34,7.92-1.81s5.28-6.93,5.28-16.83-2.31-14.68-5.28-16.83-6.44-1.81-7.92-1.81Z"/><path class="cls-2" d="M273.44,365.9v96.36a33,33,0,0,1-3,13.19,22.7,22.7,0,0,1-7.09,8.91c-3.3,2.64-7.76,4.13-13.7,4.13s-10.56-1.49-13.86-4.13a22.26,22.26,0,0,1-6.93-8.91,33.14,33.14,0,0,1-3-13.19V365.9h17.82v96.36c0,3.46.83,5.77,2.48,7.59a4.73,4.73,0,0,0,3.46,1.32c3.14,0,4.62-2,5.28-4.46a11.41,11.41,0,0,0,.66-4.45V365.9Z"/><path class="cls-2" d="M318.32,487.17,309.08,436H304.3v51.15H286.48V365.9H304.3c21.28,0,30.35,12,30.35,35,0,12-3.13,22.93-9.89,27.55l11.38,58.74Zm-14-67.65c2.47,0,5.77-.33,8.41-2.64s4.79-6.76,4.79-15.34-2.15-13.2-4.79-15.51-5.94-2.48-8.41-2.48Z"/><path class="cls-2" d="M374.58,409.46V390.81c0-3.3-.66-5.61-2.31-7.59a5.13,5.13,0,0,0-3.62-1.32c-3.14,0-4.63,2.31-5.29,4.46a12.74,12.74,0,0,0-.65,4.45v72.93c0,3.47.82,5.77,2.47,7.59a4.74,4.74,0,0,0,3.47,1.32c3.13,0,4.61-2,5.27-4.46a11.38,11.38,0,0,0,.66-4.45V441.8h-7.09v-15H392.4v60.39H381.84l-2.14-5.78a17.73,17.73,0,0,1-13.86,7.1c-5.77,0-9.73-1.49-12.7-4.13a22,22,0,0,1-6.27-8.91,33,33,0,0,1-2-13.19V390.81a32.69,32.69,0,0,1,3-13,22.62,22.62,0,0,1,6.93-9.08c3.29-2.47,7.92-4.12,13.86-4.12s10.39,1.65,13.69,4.12a23.16,23.16,0,0,1,7.09,9.08,32.69,32.69,0,0,1,3,13v18.65Z"/><path class="cls-2" d="M437.12,434.37H423.26v52.8H405.44V365.9h17.82v50.16h13.86V365.9h17.82V487.17H437.12Z"/><path class="cls-2" d="M187.54,319.78h-9.41v35.84H166V273.3h12.1v34.05h9.41V273.3h12.09v82.32H187.54Z"/><path class="cls-2" d="M205.34,355.62l12.43-82.32h14.79L245,355.62H233.23L231,338.82H219.34l-2.24,16.8Zm20.5-55.55-.34-2.13h-.67l-.34,2.13-3.47,26h8.29Z"/><path class="cls-2" d="M282.17,327.4v11.31a22.4,22.4,0,0,1-2,9,15.44,15.44,0,0,1-4.82,6.05c-2.24,1.79-5.26,2.8-9.29,2.8s-7.17-1-9.41-2.8a15.14,15.14,0,0,1-4.71-6.05,22.4,22.4,0,0,1-2-9V290.22a22.3,22.3,0,0,1,2-8.85,14.22,14.22,0,0,1,14.12-9,15,15,0,0,1,9.29,2.8,15.75,15.75,0,0,1,4.82,6.16,22.3,22.3,0,0,1,2,8.85v11.31H270.86V290.22a7.07,7.07,0,0,0-1.79-5.16,4,4,0,0,0-2.8-.89c-2.13,0-3.14,1.57-3.7,3a12.86,12.86,0,0,0-.56,3v48.49a7.76,7.76,0,0,0,1.91,5.15,3.2,3.2,0,0,0,2.35.9,3.89,3.89,0,0,0,4.14-3,7.72,7.72,0,0,0,.45-3V327.4Z"/><path class="cls-2" d="M301.66,273.3v28.79h.45l.56-1.35,10.08-27.44h11.76l-11.09,27.11L326,355.62H314.21l-8.4-35.84-.34-1.68h-.34l-.67,1.68-2.8,6.72v29.12H289.57V273.3Z"/><path class="cls-2" d="M344.78,285.74V273.3h35v12.44H368.3v69.88H356.2V285.74Z"/><path class="cls-2" d="M406,319.78h-9.4v35.84h-12.1V273.3h12.1v34.05H406V273.3h12.1v82.32H406Z"/><path class="cls-2" d="M427.21,273.3h27.67v12.44H439.31v21.61h11.2v13.22h-11.2v22.62h15.57v12.43H427.21Z"/><polyline class="cls-3" points="337.72 128.96 397.49 93.89 662.16 246.07 661.11 245.53 661.11 546.1"/><polyline class="cls-3" points="577.39 177.17 635.46 211.29 635.46 513.86 375.59 667.06"/><polyline class="cls-3" points="453.73 669.39 398.73 703.39 134.73 551.39 134.73 551.89 134.73 249.89"/><polyline class="cls-3" points="168.27 550.89 108.73 516.89 108.73 213.07 367.14 60.15"/></g></svg>