<?xml version="1.0" encoding="UTF-8" standalone="no"?>
<svg
   xmlns:dc="http://purl.org/dc/elements/1.1/"
   xmlns:cc="http://creativecommons.org/ns#"
   xmlns:rdf="http://www.w3.org/1999/02/22-rdf-syntax-ns#"
   xmlns:svg="http://www.w3.org/2000/svg"
   xmlns="http://www.w3.org/2000/svg"
   height="648.30249"
   width="557.38"
   id="svg45"
   version="1.1"
   viewBox="0 0 557.38 648.30249">
  <metadata
     id="metadata49">
    <rdf:RDF>
      <cc:Work
         rdf:about="">
        <dc:format>image/svg+xml</dc:format>
        <dc:type
           rdf:resource="http://purl.org/dc/dcmitype/StillImage" />
        <dc:title>Dark BG (Transparent)</dc:title>
      </cc:Work>
    </rdf:RDF>
  </metadata>
  <defs
     id="defs4">
    <style
       id="style2">.cls-1{fill:#cb0202;}.cls-2{fill:#fff;}.cls-3{fill:none;stroke:#cb0202;stroke-miterlimit:10;stroke-width:5px;}</style>
  </defs>
  <title
     id="title6">Dark BG (Transparent)</title>
  <g
     transform="translate(-106.23,-57.998498)"
     data-name="Dark BG (Transparent)"
     id="Dark_BG_Transparent_">
    <path
       style="fill:#cb0202"
       id="path8"
       d="M 537.55,273.3 H 568.1 L 535.51,487.19 H 504.08 L 471.49,273.3 h 30.56 l 15.71,117.56 1.17,9 h 1.74 l 1.17,-9 z"
       class="cls-1" />
    <path
       style="fill:#cb0202"
       id="path10"
       d="m 571,273.3 h 31.43 V 487.19 H 571 Z"
       class="cls-1" />
    <path
       style="fill:#ffffff"
       id="path12"
       d="M 166,487.17 V 365.9 h 15.7 c 10.56,0 18.81,2 24.26,7.09 5.45,5.09 8.25,13 8.25,25.08 0,5.78 -0.5,10.07 -2.31,14 -1.81,3.93 -4.62,7.26 -8.75,11 4.46,2.48 7.76,7.1 10.4,14.85 q 2,5.7 2,14.85 c 0,9.08 -1.65,17.16 -5.78,23.43 -4.13,6.27 -11.24,10.47 -21.77,10.97 z m 17.82,-71.28 c 1.48,0 5,0.17 7.92,-1.81 2.92,-1.98 5.28,-5.94 5.28,-14.36 0,-8.42 -2.31,-12.37 -5.28,-14.35 -2.97,-1.98 -6.44,-1.82 -7.92,-1.82 z m 0,53.62 c 1.48,0 5,0.34 7.92,-1.81 2.92,-2.15 5.28,-6.93 5.28,-16.83 0,-9.9 -2.31,-14.68 -5.28,-16.83 -2.97,-2.15 -6.44,-1.81 -7.92,-1.81 z"
       class="cls-2" />
    <path
       style="fill:#ffffff"
       id="path14"
       d="m 273.44,365.9 v 96.36 a 33,33 0 0 1 -3,13.19 22.7,22.7 0 0 1 -7.09,8.91 c -3.3,2.64 -7.76,4.13 -13.7,4.13 -5.94,0 -10.56,-1.49 -13.86,-4.13 a 22.26,22.26 0 0 1 -6.93,-8.91 33.14,33.14 0 0 1 -3,-13.19 V 365.9 h 17.82 v 96.36 c 0,3.46 0.83,5.77 2.48,7.59 a 4.73,4.73 0 0 0 3.46,1.32 c 3.14,0 4.62,-2 5.28,-4.46 a 11.41,11.41 0 0 0 0.66,-4.45 V 365.9 Z"
       class="cls-2" />
    <path
       style="fill:#ffffff"
       id="path16"
       d="M 318.32,487.17 309.08,436 h -4.78 v 51.15 H 286.48 V 365.9 h 17.82 c 21.28,0 30.35,12 30.35,35 0,12 -3.13,22.93 -9.89,27.55 l 11.38,58.74 z m -14,-67.65 c 2.47,0 5.77,-0.33 8.41,-2.64 2.64,-2.31 4.79,-6.76 4.79,-15.34 0,-8.58 -2.15,-13.2 -4.79,-15.51 -2.64,-2.31 -5.94,-2.48 -8.41,-2.48 z"
       class="cls-2" />
    <path
       style="fill:#ffffff"
       id="path18"
       d="m 374.58,409.46 v -18.65 c 0,-3.3 -0.66,-5.61 -2.31,-7.59 a 5.13,5.13 0 0 0 -3.62,-1.32 c -3.14,0 -4.63,2.31 -5.29,4.46 a 12.74,12.74 0 0 0 -0.65,4.45 v 72.93 c 0,3.47 0.82,5.77 2.47,7.59 a 4.74,4.74 0 0 0 3.47,1.32 c 3.13,0 4.61,-2 5.27,-4.46 a 11.38,11.38 0 0 0 0.66,-4.45 V 441.8 h -7.09 v -15 h 24.91 v 60.39 h -10.56 l -2.14,-5.78 a 17.73,17.73 0 0 1 -13.86,7.1 c -5.77,0 -9.73,-1.49 -12.7,-4.13 a 22,22 0 0 1 -6.27,-8.91 33,33 0 0 1 -2,-13.19 v -71.47 a 32.69,32.69 0 0 1 3,-13 22.62,22.62 0 0 1 6.93,-9.08 c 3.29,-2.47 7.92,-4.12 13.86,-4.12 5.94,0 10.39,1.65 13.69,4.12 a 23.16,23.16 0 0 1 7.09,9.08 32.69,32.69 0 0 1 3,13 v 18.65 z"
       class="cls-2" />
    <path
       style="fill:#ffffff"
       id="path20"
       d="m 437.12,434.37 h -13.86 v 52.8 H 405.44 V 365.9 h 17.82 v 50.16 h 13.86 V 365.9 h 17.82 v 121.27 h -17.82 z"
       class="cls-2" />
    <path
       style="fill:#ffffff"
       id="path22"
       d="m 187.54,319.78 h -9.41 v 35.84 H 166 V 273.3 h 12.1 v 34.05 h 9.41 V 273.3 h 12.09 v 82.32 h -12.06 z"
       class="cls-2" />
    <path
       style="fill:#ffffff"
       id="path24"
       d="m 205.34,355.62 12.43,-82.32 h 14.79 L 245,355.62 H 233.23 L 231,338.82 h -11.66 l -2.24,16.8 z m 20.5,-55.55 -0.34,-2.13 h -0.67 l -0.34,2.13 -3.47,26 h 8.29 z"
       class="cls-2" />
    <path
       style="fill:#ffffff"
       id="path26"
       d="m 282.17,327.4 v 11.31 a 22.4,22.4 0 0 1 -2,9 15.44,15.44 0 0 1 -4.82,6.05 c -2.24,1.79 -5.26,2.8 -9.29,2.8 -4.03,0 -7.17,-1 -9.41,-2.8 a 15.14,15.14 0 0 1 -4.71,-6.05 22.4,22.4 0 0 1 -2,-9 v -48.49 a 22.3,22.3 0 0 1 2,-8.85 14.22,14.22 0 0 1 14.12,-9 15,15 0 0 1 9.29,2.8 15.75,15.75 0 0 1 4.82,6.16 22.3,22.3 0 0 1 2,8.85 v 11.31 h -11.31 v -11.27 a 7.07,7.07 0 0 0 -1.79,-5.16 4,4 0 0 0 -2.8,-0.89 c -2.13,0 -3.14,1.57 -3.7,3 a 12.86,12.86 0 0 0 -0.56,3 v 48.49 a 7.76,7.76 0 0 0 1.91,5.15 3.2,3.2 0 0 0 2.35,0.9 3.89,3.89 0 0 0 4.14,-3 7.72,7.72 0 0 0 0.45,-3 V 327.4 Z"
       class="cls-2" />
    <path
       style="fill:#ffffff"
       id="path28"
       d="m 301.66,273.3 v 28.79 h 0.45 l 0.56,-1.35 10.08,-27.44 h 11.76 l -11.09,27.11 12.58,55.21 h -11.79 l -8.4,-35.84 -0.34,-1.68 h -0.34 l -0.67,1.68 -2.8,6.72 v 29.12 H 289.57 V 273.3 Z"
       class="cls-2" />
    <path
       style="fill:#ffffff"
       id="path30"
       d="M 344.78,285.74 V 273.3 h 35 v 12.44 H 368.3 v 69.88 h -12.1 v -69.88 z"
       class="cls-2" />
    <path
       style="fill:#ffffff"
       id="path32"
       d="m 406,319.78 h -9.4 v 35.84 H 384.5 V 273.3 h 12.1 v 34.05 H 406 V 273.3 h 12.1 v 82.32 H 406 Z"
       class="cls-2" />
    <path
       style="fill:#ffffff"
       id="path34"
       d="m 427.21,273.3 h 27.67 v 12.44 h -15.57 v 21.61 h 11.2 v 13.22 h -11.2 v 22.62 h 15.57 v 12.43 h -27.67 z"
       class="cls-2" />
    <polyline
       style="fill:none;stroke:#cb0202;stroke-width:5px;stroke-miterlimit:10"
       id="polyline36"
       points="337.72 128.96 397.49 93.89 662.16 246.07 661.11 245.53 661.11 546.1"
       class="cls-3" />
    <polyline
       style="fill:none;stroke:#cb0202;stroke-width:5px;stroke-miterlimit:10"
       id="polyline38"
       points="577.39 177.17 635.46 211.29 635.46 513.86 375.59 667.06"
       class="cls-3" />
    <polyline
       style="fill:none;stroke:#cb0202;stroke-width:5px;stroke-miterlimit:10"
       id="polyline40"
       points="453.73 669.39 398.73 703.39 134.73 551.39 134.73 551.89 134.73 249.89"
       class="cls-3" />
    <polyline
       style="fill:none;stroke:#cb0202;stroke-width:5px;stroke-miterlimit:10"
       id="polyline42"
       points="168.27 550.89 108.73 516.89 108.73 213.07 367.14 60.15"
       class="cls-3" />
  </g>
</svg>
