<?xml version="1.0" encoding="utf-8"?>
<!-- Generator: Adobe Illustrator 16.0.0, SVG Export Plug-In . SVG Version: 6.00 Build 0)  -->
<!DOCTYPE svg PUBLIC "-//W3C//DTD SVG 1.1//EN" "http://www.w3.org/Graphics/SVG/1.1/DTD/svg11.dtd">
<svg version="1.1" id="Layer_1" xmlns="http://www.w3.org/2000/svg" xmlns:xlink="http://www.w3.org/1999/xlink" x="0px" y="0px"
	 width="427.026px" height="136.716px" viewBox="0 0 427.026 136.716" enable-background="new 0 0 427.026 136.716"
	 xml:space="preserve">
<g>
	<path fill="#282423" d="M0,19.117L38.771,0.359v6.552L6.731,22.348l32.041,15.526v6.552L0,25.668V19.117z"/>
	<path fill="#282423" d="M67.401,45.054c-2.993,0-5.789-0.583-8.392-1.75c-2.603-1.167-4.868-2.767-6.794-4.801
		c-1.927-2.034-3.453-4.427-4.577-7.18c-1.125-2.751-1.687-5.684-1.687-8.795c0-3.11,0.562-6.042,1.687-8.795
		c1.125-2.751,2.65-5.145,4.577-7.18c1.927-2.034,4.192-3.635,6.794-4.802C61.612,0.583,64.409,0,67.401,0
		c3.469,0,6.671,0.778,9.603,2.333c2.931,1.557,5.385,3.68,7.359,6.372l-6.103,4.757c-1.197-1.735-2.708-3.097-4.532-4.084
		c-1.826-0.987-3.785-1.48-5.878-1.48c-1.795,0-3.5,0.374-5.116,1.122c-1.616,0.749-3.022,1.781-4.218,3.097
		c-1.198,1.316-2.14,2.872-2.827,4.667c-0.688,1.795-1.032,3.71-1.032,5.744c0,2.035,0.344,3.949,1.032,5.744
		c0.687,1.795,1.629,3.366,2.827,4.712c1.196,1.346,2.603,2.409,4.218,3.186c1.615,0.778,3.321,1.167,5.116,1.167
		c2.333,0,4.457-0.628,6.372-1.885c1.914-1.256,3.469-2.931,4.667-5.026l5.923,5.206c-1.916,2.872-4.397,5.161-7.449,6.866
		C74.312,44.202,70.991,45.054,67.401,45.054z"/>
	<path fill="#282423" d="M149.432,43.977h-8.706V0.987h6.911l1.795,3.68c1.077-1.257,2.363-2.348,3.859-3.276
		C154.786,0.464,156.612,0,158.766,0c0.837,0,1.78,0.105,2.827,0.314c1.046,0.21,2.123,0.569,3.231,1.077
		c1.106,0.509,2.168,1.197,3.186,2.064c1.017,0.868,1.885,1.99,2.603,3.366c1.017-1.854,2.558-3.456,4.622-4.802
		C177.299,0.673,179.498,0,181.832,0c1.555,0,3.2,0.24,4.936,0.718c1.735,0.479,3.35,1.377,4.847,2.692
		c1.495,1.317,2.722,3.142,3.68,5.475c0.956,2.333,1.436,5.355,1.436,9.064v26.027h-8.167V17.86c0-3.709-0.763-6.296-2.289-7.763
		c-1.526-1.465-3.545-2.199-6.058-2.199c-1.916,0-3.59,0.808-5.026,2.423c-1.436,1.616-2.154,4.16-2.154,7.629v26.027h-8.167V17.86
		c0-3.709-0.763-6.296-2.289-7.763c-1.526-1.465-3.545-2.199-6.058-2.199c-1.795,0-3.366,0.688-4.712,2.064
		c-1.346,1.377-2.14,3.531-2.378,6.462V43.977z"/>
	<path fill="#C32126" d="M277.594,35.002c0.538-0.478,1.017-1.017,1.436-1.615c0.418-0.598,0.629-1.286,0.629-2.064
		c0-0.956-0.345-1.764-1.032-2.423c-0.688-0.657-1.525-1.211-2.513-1.66s-2.02-0.792-3.097-1.032
		c-1.077-0.238-1.975-0.449-2.692-0.628c-1.975-0.479-3.83-1.062-5.564-1.75c-1.736-0.687-3.246-1.525-4.532-2.513
		c-1.287-0.987-2.305-2.154-3.052-3.5c-0.749-1.346-1.122-2.946-1.122-4.801c0-1.735,0.414-3.366,1.244-4.892
		c0.829-1.526,1.939-2.872,3.33-4.039c1.392-1.167,3.026-2.094,4.904-2.782c1.878-0.687,3.863-1.032,5.959-1.032
		c1.854,0,3.619,0.273,5.295,0.817c1.674,0.546,3.186,1.288,4.532,2.226c1.347,0.938,2.482,2.071,3.41,3.401
		c0.928,1.329,1.54,2.8,1.84,4.416l-7.808,1.885c-0.359-1.436-1.138-2.632-2.334-3.59c-1.197-0.956-2.842-1.436-4.936-1.436
		c-0.719,0-1.467,0.105-2.244,0.314c-0.778,0.209-1.496,0.521-2.154,0.939c-0.659,0.418-1.211,0.926-1.66,1.523
		c-0.448,0.597-0.673,1.283-0.673,2.059c0,0.836,0.254,1.551,0.763,2.148c0.508,0.597,1.122,1.089,1.84,1.477
		c0.718,0.389,1.495,0.703,2.334,0.941c0.837,0.238,1.615,0.447,2.333,0.627c3.171,0.777,5.803,1.613,7.898,2.507
		c2.093,0.895,3.769,1.879,5.025,2.954c1.257,1.074,2.139,2.253,2.647,3.537c0.508,1.284,0.763,2.731,0.763,4.343
		c0,1.91-0.433,3.701-1.298,5.373c-0.865,1.671-2.059,3.119-3.58,4.341c-1.521,1.225-3.342,2.179-5.46,2.865
		c-2.118,0.686-4.401,1.029-6.848,1.029c-3.699,0-6.996-0.913-9.891-2.737c-2.895-1.825-4.848-4.263-5.861-7.314l7.359-3.321
		c0.956,2.095,2.184,3.516,3.68,4.263c1.495,0.749,3.2,1.122,5.116,1.122C273.973,36.977,275.979,36.319,277.594,35.002z"/>
	<path fill="#C32126" d="M363.214,45.054c-2.992,0-5.788-0.583-8.392-1.75c-2.603-1.167-4.867-2.767-6.794-4.801
		c-1.927-2.034-3.452-4.427-4.577-7.18c-1.125-2.751-1.687-5.684-1.687-8.795c0-3.11,0.562-6.042,1.687-8.795
		c1.125-2.751,2.65-5.145,4.577-7.18c1.927-2.034,4.191-3.635,6.794-4.802c2.604-1.167,5.399-1.75,8.392-1.75
		c3.47,0,6.671,0.778,9.604,2.333c2.931,1.557,5.385,3.68,7.359,6.372l-6.103,4.757c-1.198-1.735-2.708-3.097-4.532-4.084
		c-1.826-0.987-3.785-1.48-5.879-1.48c-1.795,0-3.5,0.374-5.116,1.122c-1.615,0.749-3.021,1.781-4.218,3.097
		c-1.197,1.316-2.14,2.872-2.827,4.667c-0.688,1.795-1.032,3.71-1.032,5.744c0,2.035,0.344,3.949,1.032,5.744
		c0.688,1.795,1.63,3.366,2.827,4.712c1.196,1.346,2.603,2.409,4.218,3.186c1.616,0.778,3.321,1.167,5.116,1.167
		c2.333,0,4.457-0.628,6.372-1.885c1.914-1.256,3.47-2.931,4.667-5.026l5.924,5.206c-1.916,2.872-4.398,5.161-7.449,6.866
		C370.125,44.202,366.805,45.054,363.214,45.054z"/>
	<path fill="#C32126" d="M388.254,0.359l38.771,18.758v6.551l-38.771,18.758v-6.552l31.95-15.526l-31.95-15.437V0.359z"/>
	<path fill="#C32126" d="M334.854,13.731c-1.138-2.751-2.679-5.145-4.622-7.18c-1.945-2.034-4.233-3.635-6.866-4.802
		C320.733,0.583,317.951,0,315.019,0c-2.992,0-5.788,0.583-8.392,1.75c-2.603,1.167-4.877,2.768-6.82,4.802
		c-1.945,2.035-3.486,4.428-4.622,7.18c-1.138,2.753-1.706,5.685-1.706,8.795c0,3.112,0.568,6.044,1.706,8.795
		c1.136,2.753,2.677,5.146,4.622,7.18c1.943,2.035,4.218,3.635,6.82,4.801c1.183,0.53,2.41,0.923,3.673,1.213l-0.087,17.263V72.74
		c0,13.989-9.322,25.795-22.092,29.562v-9.01l-15.032,10.288l-57.521,0.149l-0.001,8.431h58.425l14.13,9.091v-9.799
		c17.485-3.402,30.687-18.793,30.687-37.273V61.779V44.694c1.564-0.288,3.087-0.738,4.558-1.39c2.633-1.167,4.921-2.767,6.866-4.801
		c1.943-2.034,3.484-4.427,4.622-7.18c1.136-2.751,1.705-5.684,1.705-8.795C336.559,19.417,335.99,16.484,334.854,13.731z
		 M326.682,28.244c-0.66,1.801-1.561,3.375-2.702,4.726s-2.491,2.416-4.053,3.196c-1.561,0.78-3.211,1.169-4.953,1.169
		c-1.741,0-3.392-0.39-4.953-1.169s-2.928-1.845-4.099-3.196s-2.087-2.925-2.747-4.726c-0.66-1.8-0.99-3.72-0.99-5.762
		c0-2.04,0.33-3.96,0.99-5.761c0.66-1.8,1.576-3.36,2.747-4.681c1.171-1.321,2.537-2.372,4.099-3.151s3.212-1.171,4.953-1.171
		c1.742,0,3.393,0.391,4.953,1.171c1.562,0.78,2.911,1.83,4.053,3.151c1.142,1.321,2.042,2.88,2.702,4.681
		c0.661,1.801,0.992,3.721,0.992,5.761C327.674,24.524,327.343,26.444,326.682,28.244z"/>
	<path fill="#282423" d="M248.466,13.731c-1.051-2.751-2.506-5.145-4.365-7.18c-1.859-2.034-4.064-3.635-6.613-4.802
		C234.939,0.583,232.164,0,229.164,0c-2.82,0-5.354,0.479-7.604,1.436c-2.25,0.958-4.244,2.304-5.984,4.039L213.8,0.987h-6.84
		v77.405h-46.808L145.144,68.12v10.214c-16.172-0.946-28.996-14.356-28.996-30.766v-2.902c1.503-0.29,2.967-0.735,4.385-1.363
		c2.632-1.167,4.92-2.767,6.866-4.801c1.943-2.034,3.485-4.427,4.622-7.18c1.136-2.751,1.705-5.684,1.705-8.795
		c0-3.11-0.569-6.042-1.705-8.795c-1.137-2.751-2.679-5.145-4.622-7.18c-1.945-2.034-4.234-3.635-6.866-4.802
		C117.899,0.583,115.117,0,112.186,0c-2.993,0-5.789,0.583-8.392,1.75c-2.603,1.167-4.877,2.768-6.821,4.802
		c-1.945,2.035-3.486,4.428-4.622,7.18c-1.137,2.753-1.705,5.685-1.705,8.795c0,3.112,0.568,6.044,1.705,8.795
		c1.136,2.753,2.677,5.146,4.622,7.18c1.944,2.035,4.218,3.635,6.821,4.801c1.209,0.542,2.465,0.945,3.758,1.236v4.468
		c0,20.845,16.795,37.761,37.591,37.971v9.102l14.131-9.092h47.686v49.728h8.604l0.003-24.556l0.001-8.431l0.008-64.419
		c1.682,1.855,3.631,3.276,5.85,4.263s4.799,1.481,7.738,1.481c3,0,5.775-0.583,8.324-1.75c2.549-1.167,4.754-2.767,6.613-4.801
		c1.859-2.034,3.314-4.427,4.365-7.18c1.049-2.751,1.574-5.684,1.574-8.795C250.041,19.417,249.515,16.484,248.466,13.731z
		 M107.188,36.166c-1.562-0.78-2.928-1.845-4.099-3.196s-2.086-2.925-2.747-4.726c-0.661-1.8-0.99-3.72-0.99-5.762
		c0-2.04,0.33-3.96,0.99-5.761c0.661-1.8,1.576-3.36,2.747-4.681c1.171-1.321,2.537-2.372,4.099-3.151
		c1.561-0.78,3.211-1.171,4.953-1.171s3.392,0.391,4.953,1.171c1.561,0.78,2.911,1.83,4.053,3.151
		c1.141,1.321,2.042,2.88,2.702,4.681c0.661,1.801,0.991,3.721,0.991,5.761c0,2.042-0.331,3.962-0.991,5.762
		c-0.661,1.801-1.561,3.375-2.702,4.726c-1.142,1.351-2.492,2.416-4.053,3.196c-1.561,0.78-3.211,1.169-4.953,1.169
		S108.749,36.946,107.188,36.166z M240.164,28.271c-0.66,1.795-1.561,3.366-2.703,4.712c-1.141,1.346-2.49,2.409-4.053,3.186
		c-1.561,0.778-3.211,1.167-4.953,1.167c-1.74,0-3.391-0.269-4.951-0.808c-1.562-0.539-2.93-1.391-4.1-2.558
		c-1.172-1.167-2.088-2.693-2.748-4.578s-0.99-4.173-0.99-6.866c0-2.513,0.33-4.681,0.99-6.507c0.66-1.824,1.576-3.35,2.748-4.577
		c1.17-1.226,2.537-2.123,4.1-2.692c1.561-0.568,3.211-0.853,4.951-0.853c1.742,0,3.393,0.374,4.953,1.122
		c1.562,0.749,2.912,1.781,4.053,3.097c1.143,1.316,2.043,2.872,2.703,4.667c0.66,1.795,0.992,3.71,0.992,5.744
		C241.156,24.562,240.824,26.476,240.164,28.271z"/>
</g>
</svg>
