<svg id="reversed" xmlns="http://www.w3.org/2000/svg" viewBox="0 0 173.1 67.95"><defs><style>.cls-1{fill:#9b59b6;}.cls-2{fill:#f7f7f7;}.cls-3{fill:#bc5a89;}.cls-4{fill:#ab59a0;}.cls-5{fill:#ff9283;}.cls-6{fill:#fc6e63;}.cls-7{fill:#e56a6a;}.cls-8{fill:#cc5a73;}.cls-9{fill:#8140a0;}.cls-10{fill:#e26464;}</style></defs><path class="cls-1" d="M75.81,7.26,79,12.87h-3L73,7.55H70.64v5.32H68.07V0h5.61q4.5,0,4.5,3.71A3.33,3.33,0,0,1,75.81,7.26ZM70.64,5.15h3.6c1,0,1.57-.49,1.6-1.42s-.55-1.29-1.57-1.32H70.64Z" transform="translate(0)"/><path class="cls-1" d="M81.52,11a6.21,6.21,0,0,1-1.85-4.61,6.2,6.2,0,0,1,1.85-4.56A6.21,6.21,0,0,1,86.09,0a6.94,6.94,0,0,1,4.73,1.72L89.1,3.59a4.76,4.76,0,0,0-3-1,3.67,3.67,0,0,0-3.85,3.82,3.86,3.86,0,0,0,1.07,2.85,3.81,3.81,0,0,0,2.8,1,3.62,3.62,0,0,0,2.14-.54V7.54H86.53V5.15h4.29v6a6.93,6.93,0,0,1-4.73,1.72A6.24,6.24,0,0,1,81.52,11Z" transform="translate(0)"/><path class="cls-1" d="M95.79,0V7.46a2.59,2.59,0,0,0,.85,2.15,3.33,3.33,0,0,0,2.15.68,3.29,3.29,0,0,0,2.14-.68,2.56,2.56,0,0,0,.86-2.15V0h2.57V8.15a4.27,4.27,0,0,1-1.58,3.35,6.5,6.5,0,0,1-8,0,4.28,4.28,0,0,1-1.59-3.35V0Z" transform="translate(0)"/><path class="cls-2" d="M2.87,40.65A9.71,9.71,0,0,1,0,33.49a9.82,9.82,0,0,1,10-10,10.84,10.84,0,0,1,7.35,2.67l-2.67,2.92A7.36,7.36,0,0,0,10,27.52a5.69,5.69,0,0,0-6,5.94,6,6,0,0,0,1.66,4.42A5.89,5.89,0,0,0,10,39.52a7.16,7.16,0,0,0,4.65-1.58l2.67,2.92A10.84,10.84,0,0,1,10,43.52,9.73,9.73,0,0,1,2.87,40.65Z" transform="translate(0)"/><path class="cls-2" d="M43.58,43.52v-20h1.34l8.66,9.86,8.67-9.86h1.34v20h-4V31.93l-6,6.66-6-6.66V43.52Z" transform="translate(0)"/><path class="cls-2" d="M67.57,43.52v-20h8.72q7,0,7,5.76,0,6-7,6H71.57v8.26Zm4-12h5.6c1.61,0,2.43-.76,2.48-2.2s-.86-2-2.44-2H71.57Z" transform="translate(0)"/><path class="cls-2" d="M89.92,23.53v11.6a4,4,0,0,0,1.34,3.33,5.76,5.76,0,0,0,6.66,0,4,4,0,0,0,1.33-3.33V23.53h4V36.19a6.62,6.62,0,0,1-2.46,5.2,10.09,10.09,0,0,1-12.4,0,6.63,6.63,0,0,1-2.47-5.2V23.53Z" transform="translate(0)"/><path class="cls-2" d="M126.85,23.52h4v20h-4Z" transform="translate(0)"/><path class="cls-2" d="M134.85,43.52v-20h1.33l12.53,12.53V23.53h4v20h-1.46l-12.4-12.39V43.52Z" transform="translate(0)"/><path class="cls-2" d="M158.65,40.65a9.67,9.67,0,0,1-2.87-7.16,9.82,9.82,0,0,1,10-10,10.79,10.79,0,0,1,7.34,2.67l-2.66,2.92a7.36,7.36,0,0,0-4.68-1.6,5.69,5.69,0,0,0-6,5.94,5.94,5.94,0,0,0,1.66,4.42,5.87,5.87,0,0,0,4.35,1.64,5.49,5.49,0,0,0,3.31-.85V35.25h-2.66V31.53h6.66v9.33a10.8,10.8,0,0,1-7.34,2.66A9.7,9.7,0,0,1,158.65,40.65Z" transform="translate(0)"/><rect class="cls-2" x="106.51" y="23.52" width="17.36" height="3.66"/><rect class="cls-2" x="106.46" y="23.5" width="3.66" height="5.57"/><rect class="cls-2" x="120.21" y="23.5" width="3.66" height="5.57"/><rect class="cls-2" x="113.15" y="33.86" width="4.08" height="9.54"/><polygon class="cls-2" points="118.65 34.87 115.19 28.88 111.73 34.87 118.65 34.87"/><path class="cls-3" d="M25.1,37.8a1.83,1.83,0,1,0,1.29.53A1.78,1.78,0,0,0,25.1,37.8Z" transform="translate(0)"/><path class="cls-4" d="M24.69,33.93a1.94,1.94,0,0,0-.6-1.43,2,2,0,0,0-1.44-.6,2,2,0,0,0-2,2,2,2,0,0,0,.6,1.44,1.94,1.94,0,0,0,1.43.6,2,2,0,0,0,2-2Z" transform="translate(0)"/><path class="cls-5" d="M36.49,29.25A.94.94,0,0,0,37.2,29a1,1,0,0,0,0-1.44.94.94,0,0,0-.71-.3,1,1,0,1,0,0,2Z" transform="translate(0)"/><path class="cls-1" d="M25.1,26a2.22,2.22,0,0,0-2.24,2.24,2.24,2.24,0,1,0,4.47,0A2.22,2.22,0,0,0,25.1,26Z" transform="translate(0)"/><path class="cls-6" d="M39.79,33.07a1.16,1.16,0,0,0-.86-.36,1.21,1.21,0,0,0-1.22,1.22,1.22,1.22,0,0,0,.35.87,1.18,1.18,0,0,0,.87.35,1.15,1.15,0,0,0,.86-.35,1.19,1.19,0,0,0,.36-.87A1.16,1.16,0,0,0,39.79,33.07Z" transform="translate(0)"/><path class="cls-7" d="M36.49,38.21a1.42,1.42,0,1,0,1,.41A1.35,1.35,0,0,0,36.49,38.21Z" transform="translate(0)"/><path class="cls-8" d="M30.79,40.44a1.64,1.64,0,1,0,1.15.48A1.56,1.56,0,0,0,30.79,40.44Z" transform="translate(0)"/><path class="cls-9" d="M30.79,23.36a2.42,2.42,0,0,0-2.44,2.44,2.42,2.42,0,0,0,2.44,2.44,2.36,2.36,0,0,0,1.73-.71,2.39,2.39,0,0,0,.71-1.73,2.36,2.36,0,0,0-.71-1.73A2.32,2.32,0,0,0,30.79,23.36Z" transform="translate(0)"/><path class="cls-10" d="M39.29,59.68V58.14l7.18-3.44v1.53l-5.71,2.68,5.71,2.69v1.53Z" transform="translate(0)"/><path class="cls-10" d="M50.26,61.93l1.41-.52a2.82,2.82,0,0,0,.93,1.3,2.46,2.46,0,0,0,1.51.46,2.34,2.34,0,0,0,1.35-.36,1.16,1.16,0,0,0,.53-1,.82.82,0,0,0-.5-.76,7.53,7.53,0,0,0-1.79-.55,4.86,4.86,0,0,1-2.15-.87,2.07,2.07,0,0,1-.71-1.69,2.29,2.29,0,0,1,.88-1.87,3.34,3.34,0,0,1,2.15-.7,3.46,3.46,0,0,1,3.24,1.92l-1.18.83a2.33,2.33,0,0,0-2.11-1.41,1.86,1.86,0,0,0-1.1.3,1,1,0,0,0-.44.87,1,1,0,0,0,.49.85,5,5,0,0,0,1.57.53,9.14,9.14,0,0,1,1.81.52,2,2,0,0,1,1.38,1.89,2.48,2.48,0,0,1-1,2.08,3.81,3.81,0,0,1-2.43.76,4.28,4.28,0,0,1-2.41-.68A3.51,3.51,0,0,1,50.26,61.93Z" transform="translate(0)"/><path class="cls-10" d="M60.42,59.93a4.7,4.7,0,0,1,1.2-3.23,4.41,4.41,0,0,1,6.33,0,5,5,0,0,1,0,6.47,4.43,4.43,0,0,1-6.33,0A4.71,4.71,0,0,1,60.42,59.93Zm1.51,0a3.55,3.55,0,0,0,.78,2.29,2.74,2.74,0,0,0,4.15,0,3.78,3.78,0,0,0,0-4.57,2.74,2.74,0,0,0-4.15,0A3.54,3.54,0,0,0,61.93,59.93Z" transform="translate(0)"/><path class="cls-10" d="M71.78,59.93a4.85,4.85,0,0,1,1.14-3.23A3.86,3.86,0,0,1,76,55.36a3.8,3.8,0,0,1,3.74,2.45l-1.28.53A2.49,2.49,0,0,0,76,56.7a2.42,2.42,0,0,0-2,.9,3.54,3.54,0,0,0-.74,2.33A3.58,3.58,0,0,0,74,62.27a2.42,2.42,0,0,0,2,.9,2.49,2.49,0,0,0,2.46-1.64l1.28.53A3.79,3.79,0,0,1,76,64.5a3.87,3.87,0,0,1-3.1-1.33A4.86,4.86,0,0,1,71.78,59.93Z" transform="translate(0)"/><path class="cls-10" d="M83,64.36v-1.3h3.09V56.8H83.34V55.51h4.19v7.55h3.3v1.3Zm2.48-11.21a1.15,1.15,0,0,1,.36-.87,1.19,1.19,0,0,1,.87-.36,1.16,1.16,0,0,1,.85.36,1.27,1.27,0,0,1,0,1.73,1.2,1.2,0,0,1-.85.34,1.22,1.22,0,0,1-.88-.35A1.19,1.19,0,0,1,85.47,53.15Z" transform="translate(0)"/><path class="cls-10" d="M93.33,59.93a4.81,4.81,0,0,1,1.14-3.25,4.38,4.38,0,0,1,6.19-.08,4.29,4.29,0,0,1,1.11,3v.62H94.84a3.29,3.29,0,0,0,.81,2.12,2.51,2.51,0,0,0,1.91.8,3.06,3.06,0,0,0,2.85-1.76l1.18.62a4.27,4.27,0,0,1-4,2.47,4,4,0,0,1-3.07-1.3A4.72,4.72,0,0,1,93.33,59.93Zm1.62-1h5.25a2.72,2.72,0,0,0-.89-1.63,2.59,2.59,0,0,0-1.75-.58,2.51,2.51,0,0,0-1.71.58A2.79,2.79,0,0,0,95,58.91Z" transform="translate(0)"/><path class="cls-10" d="M104,56.84V55.51h2.39V52.86l1.44-.94v3.59h4.35v1.33h-4.35v4.53q0,1.8,1.53,1.8a3,3,0,0,0,2.18-1.06l.54,1.25a3.72,3.72,0,0,1-2.72,1.14,2.94,2.94,0,0,1-2.22-.78,3.17,3.17,0,0,1-.75-2.29V56.84Z" transform="translate(0)"/><path class="cls-10" d="M115,55.51h1.65l3,6.48,2.62-6.48h1.6L118.61,68h-1.47l1.72-4.19Z" transform="translate(0)"/><path class="cls-10" d="M126.64,63.13V61.6l5.71-2.69-5.71-2.68V54.7l7.18,3.44v1.54Z" transform="translate(0)"/></svg>