<?xml version="1.0" encoding="UTF-8" standalone="no"?>
<svg
   xmlns:dc="http://purl.org/dc/elements/1.1/"
   xmlns:cc="http://creativecommons.org/ns#"
   xmlns:rdf="http://www.w3.org/1999/02/22-rdf-syntax-ns#"
   xmlns:svg="http://www.w3.org/2000/svg"
   xmlns="http://www.w3.org/2000/svg"
   height="68.002205"
   width="173.1236"
   version="1.1"
   viewBox="0 0 173.12359 68.002208"
   id="reversed">
  <metadata
     id="metadata73">
    <rdf:RDF>
      <cc:Work
         rdf:about="">
        <dc:format>image/svg+xml</dc:format>
        <dc:type
           rdf:resource="http://purl.org/dc/dcmitype/StillImage" />
        <dc:title></dc:title>
      </cc:Work>
    </rdf:RDF>
  </metadata>
  <defs
     id="defs4">
    <style
       id="style2">.cls-1{fill:#9b59b6;}.cls-2{fill:#f7f7f7;}.cls-3{fill:#bc5a89;}.cls-4{fill:#ab59a0;}.cls-5{fill:#ff9283;}.cls-6{fill:#fc6e63;}.cls-7{fill:#e56a6a;}.cls-8{fill:#cc5a73;}.cls-9{fill:#8140a0;}.cls-10{fill:#e26464;}</style>
  </defs>
  <path
     style="fill:#9b59b6"
     id="path6"
     d="m 75.813603,7.2622075 3.19,5.6100005 h -3 l -3,-5.3200005 h -2.36 v 5.3200005 h -2.57 V 0.0022075 h 5.61 q 4.5,0 4.5,3.71 a 3.33,3.33 0 0 1 -2.37,3.55 z m -5.17,-2.11 h 3.6 c 1,0 1.57,-0.49 1.6,-1.42 0.03,-0.93 -0.55,-1.29 -1.57,-1.32 h -3.63 z"
     class="cls-1" />
  <path
     style="fill:#9b59b6"
     id="path8"
     d="m 81.523603,11.002208 a 6.21,6.21 0 0 1 -1.85,-4.6100005 6.2,6.2 0 0 1 1.85,-4.56 6.21,6.21 0 0 1 4.57,-1.83 6.94,6.94 0 0 1 4.73,1.72 l -1.72,1.87 a 4.76,4.76 0 0 0 -3,-1 3.67,3.67 0 0 0 -3.85,3.82 3.86,3.86 0 0 0 1.07,2.85 3.81,3.81 0 0 0 2.8,1.0000005 3.62,3.62 0 0 0 2.14,-0.5400005 v -2.18 h -1.73 v -2.39 h 4.29 v 6.0000005 a 6.93,6.93 0 0 1 -4.73,1.72 6.24,6.24 0 0 1 -4.57,-1.87 z"
     class="cls-1" />
  <path
     style="fill:#9b59b6"
     id="path10"
     d="m 95.793603,0.0022075 v 7.46 a 2.59,2.59 0 0 0 0.85,2.15 3.33,3.33 0 0 0 2.15,0.6800005 3.29,3.29 0 0 0 2.139997,-0.6800005 2.56,2.56 0 0 0 0.86,-2.15 v -7.46 h 2.57 v 8.15 a 4.27,4.27 0 0 1 -1.58,3.3500005 6.5,6.5 0 0 1 -7.999997,0 4.28,4.28 0 0 1 -1.59,-3.3500005 v -8.15 z"
     class="cls-1" />
  <path
     style="fill:#f7f7f7"
     id="path12"
     d="m 2.8736034,40.652208 a 9.71,9.71 0 0 1 -2.86999997,-7.16 9.82,9.82 0 0 1 9.99999957,-10 10.84,10.84 0 0 1 7.35,2.67 l -2.67,2.92 a 7.36,7.36 0 0 0 -4.68,-1.56 5.69,5.69 0 0 0 -5.9999996,5.94 6,6 0 0 0 1.66,4.42 5.89,5.89 0 0 0 4.3399996,1.64 7.16,7.16 0 0 0 4.65,-1.58 l 2.67,2.92 a 10.84,10.84 0 0 1 -7.32,2.66 9.73,9.73 0 0 1 -7.1299996,-2.87 z"
     class="cls-2" />
  <path
     style="fill:#f7f7f7"
     id="path14"
     d="m 43.583603,43.522208 v -20 h 1.34 l 8.66,9.86 8.67,-9.86 h 1.34 v 20 h -4 v -11.59 l -6,6.66 -6,-6.66 v 11.59 z"
     class="cls-2" />
  <path
     style="fill:#f7f7f7"
     id="path16"
     d="m 67.573603,43.522208 v -20 h 8.72 q 7,0 7,5.76 0,6 -7,6 h -4.72 v 8.26 z m 4,-12 h 5.6 c 1.61,0 2.43,-0.76 2.48,-2.2 0.05,-1.44 -0.86,-2 -2.44,-2 h -5.64 z"
     class="cls-2" />
  <path
     style="fill:#f7f7f7"
     id="path18"
     d="m 89.923603,23.532208 v 11.6 a 4,4 0 0 0 1.34,3.33 5.76,5.76 0 0 0 6.66,0 4,4 0 0 0 1.33,-3.33 v -11.6 h 3.999997 v 12.66 a 6.62,6.62 0 0 1 -2.46,5.2 10.09,10.09 0 0 1 -12.399997,0 6.63,6.63 0 0 1 -2.47,-5.2 v -12.66 z"
     class="cls-2" />
  <path
     style="fill:#f7f7f7"
     id="path20"
     d="m 126.8536,23.522208 h 4 v 20 h -4 z"
     class="cls-2" />
  <path
     style="fill:#f7f7f7"
     id="path22"
     d="m 134.8536,43.522208 v -20 h 1.33 l 12.53,12.53 v -12.52 h 4 v 20 h -1.46 l -12.4,-12.39 v 12.38 z"
     class="cls-2" />
  <path
     style="fill:#f7f7f7"
     id="path24"
     d="m 158.6536,40.652208 a 9.67,9.67 0 0 1 -2.87,-7.16 9.82,9.82 0 0 1 10,-10 10.79,10.79 0 0 1 7.34,2.67 l -2.66,2.92 a 7.36,7.36 0 0 0 -4.68,-1.6 5.69,5.69 0 0 0 -6,5.94 5.94,5.94 0 0 0 1.66,4.42 5.87,5.87 0 0 0 4.35,1.64 5.49,5.49 0 0 0 3.31,-0.85 v -3.38 h -2.66 v -3.72 h 6.66 v 9.33 a 10.8,10.8 0 0 1 -7.34,2.66 9.7,9.7 0 0 1 -7.11,-2.87 z"
     class="cls-2" />
  <rect
     style="fill:#f7f7f7"
     id="rect26"
     height="3.6600001"
     width="17.360001"
     y="23.522207"
     x="106.5136"
     class="cls-2" />
  <rect
     style="fill:#f7f7f7"
     id="rect28"
     height="5.5700002"
     width="3.6600001"
     y="23.502207"
     x="106.4636"
     class="cls-2" />
  <rect
     style="fill:#f7f7f7"
     id="rect30"
     height="5.5700002"
     width="3.6600001"
     y="23.502207"
     x="120.2136"
     class="cls-2" />
  <rect
     style="fill:#f7f7f7"
     id="rect32"
     height="9.54"
     width="4.0799999"
     y="33.862209"
     x="113.1536"
     class="cls-2" />
  <polygon
     transform="translate(0.00360343,0.0022075)"
     style="fill:#f7f7f7"
     id="polygon34"
     points="111.73,34.87 118.65,34.87 115.19,28.88 "
     class="cls-2" />
  <path
     style="fill:#bc5a89"
     id="path36"
     d="m 25.103603,37.802208 a 1.83,1.83 0 1 0 1.29,0.53 1.78,1.78 0 0 0 -1.29,-0.53 z"
     class="cls-3" />
  <path
     style="fill:#ab59a0"
     id="path38"
     d="m 24.693603,33.932208 a 1.94,1.94 0 0 0 -0.6,-1.43 2,2 0 0 0 -1.44,-0.6 2,2 0 0 0 -2,2 2,2 0 0 0 0.6,1.44 1.94,1.94 0 0 0 1.43,0.6 2,2 0 0 0 2,-2 z"
     class="cls-4" />
  <path
     style="fill:#ff9283"
     id="path40"
     d="m 36.493603,29.252208 a 0.94,0.94 0 0 0 0.71,-0.25 1,1 0 0 0 0,-1.44 0.94,0.94 0 0 0 -0.71,-0.3 1,1 0 1 0 0,2 z"
     class="cls-5" />
  <path
     style="fill:#9b59b6"
     id="path42"
     d="m 25.103603,26.002208 a 2.22,2.22 0 0 0 -2.24,2.24 2.24,2.24 0 1 0 4.47,0 2.22,2.22 0 0 0 -2.23,-2.24 z"
     class="cls-1" />
  <path
     style="fill:#fc6e63"
     id="path44"
     d="m 39.793603,33.072208 a 1.16,1.16 0 0 0 -0.86,-0.36 1.21,1.21 0 0 0 -1.22,1.22 1.22,1.22 0 0 0 0.35,0.87 1.18,1.18 0 0 0 0.87,0.35 1.15,1.15 0 0 0 0.86,-0.35 1.19,1.19 0 0 0 0.36,-0.87 1.16,1.16 0 0 0 -0.36,-0.86 z"
     class="cls-6" />
  <path
     style="fill:#e56a6a"
     id="path46"
     d="m 36.493603,38.212208 a 1.42,1.42 0 1 0 1,0.41 1.35,1.35 0 0 0 -1,-0.41 z"
     class="cls-7" />
  <path
     style="fill:#cc5a73"
     id="path48"
     d="m 30.793603,40.442208 a 1.64,1.64 0 1 0 1.15,0.48 1.56,1.56 0 0 0 -1.15,-0.48 z"
     class="cls-8" />
  <path
     style="fill:#8140a0"
     id="path50"
     d="m 30.793603,23.362208 a 2.42,2.42 0 0 0 -2.44,2.44 2.42,2.42 0 0 0 2.44,2.44 2.36,2.36 0 0 0 1.73,-0.71 2.39,2.39 0 0 0 0.71,-1.73 2.36,2.36 0 0 0 -0.71,-1.73 2.32,2.32 0 0 0 -1.73,-0.71 z"
     class="cls-9" />
  <path
     style="fill:#e26464"
     id="path52"
     d="m 39.293603,59.682208 v -1.54 l 7.18,-3.44 v 1.53 l -5.71,2.68 5.71,2.69 v 1.53 z"
     class="cls-10" />
  <path
     style="fill:#e26464"
     id="path54"
     d="m 50.263603,61.932208 1.41,-0.52 a 2.82,2.82 0 0 0 0.93,1.3 2.46,2.46 0 0 0 1.51,0.46 2.34,2.34 0 0 0 1.35,-0.36 1.16,1.16 0 0 0 0.53,-1 0.82,0.82 0 0 0 -0.5,-0.76 7.53,7.53 0 0 0 -1.79,-0.55 4.86,4.86 0 0 1 -2.15,-0.87 2.07,2.07 0 0 1 -0.71,-1.69 2.29,2.29 0 0 1 0.88,-1.87 3.34,3.34 0 0 1 2.15,-0.7 3.46,3.46 0 0 1 3.24,1.92 l -1.18,0.83 a 2.33,2.33 0 0 0 -2.11,-1.41 1.86,1.86 0 0 0 -1.1,0.3 1,1 0 0 0 -0.44,0.87 1,1 0 0 0 0.49,0.85 5,5 0 0 0 1.57,0.53 9.14,9.14 0 0 1 1.81,0.52 2,2 0 0 1 1.38,1.89 2.48,2.48 0 0 1 -1,2.08 3.81,3.81 0 0 1 -2.43,0.76 4.28,4.28 0 0 1 -2.41,-0.68 3.51,3.51 0 0 1 -1.43,-1.9 z"
     class="cls-10" />
  <path
     style="fill:#e26464"
     id="path56"
     d="m 60.423603,59.932208 a 4.7,4.7 0 0 1 1.2,-3.23 4.41,4.41 0 0 1 6.33,0 5,5 0 0 1 0,6.47 4.43,4.43 0 0 1 -6.33,0 4.71,4.71 0 0 1 -1.2,-3.24 z m 1.51,0 a 3.55,3.55 0 0 0 0.78,2.29 2.74,2.74 0 0 0 4.15,0 3.78,3.78 0 0 0 0,-4.57 2.74,2.74 0 0 0 -4.15,0 3.54,3.54 0 0 0 -0.78,2.28 z"
     class="cls-10" />
  <path
     style="fill:#e26464"
     id="path58"
     d="m 71.783603,59.932208 a 4.85,4.85 0 0 1 1.14,-3.23 3.86,3.86 0 0 1 3.08,-1.34 3.8,3.8 0 0 1 3.74,2.45 l -1.28,0.53 a 2.49,2.49 0 0 0 -2.46,-1.64 2.42,2.42 0 0 0 -2,0.9 3.54,3.54 0 0 0 -0.74,2.33 3.58,3.58 0 0 0 0.74,2.34 2.42,2.42 0 0 0 2,0.9 2.49,2.49 0 0 0 2.46,-1.64 l 1.28,0.53 a 3.79,3.79 0 0 1 -3.74,2.44 3.87,3.87 0 0 1 -3.1,-1.33 4.86,4.86 0 0 1 -1.12,-3.24 z"
     class="cls-10" />
  <path
     style="fill:#e26464"
     id="path60"
     d="m 83.003603,64.362208 v -1.3 h 3.09 v -6.26 h -2.75 v -1.29 h 4.19 v 7.55 h 3.3 v 1.3 z m 2.48,-11.21 a 1.15,1.15 0 0 1 0.36,-0.87 1.19,1.19 0 0 1 0.87,-0.36 1.16,1.16 0 0 1 0.85,0.36 1.27,1.27 0 0 1 0,1.73 1.2,1.2 0 0 1 -0.85,0.34 1.22,1.22 0 0 1 -0.88,-0.35 1.19,1.19 0 0 1 -0.36,-0.85 z"
     class="cls-10" />
  <path
     style="fill:#e26464"
     id="path62"
     d="m 93.333603,59.932208 a 4.81,4.81 0 0 1 1.14,-3.25 4.38,4.38 0 0 1 6.189997,-0.08 4.29,4.29 0 0 1 1.11,3 v 0.62 h -6.929997 a 3.29,3.29 0 0 0 0.81,2.12 2.51,2.51 0 0 0 1.91,0.8 3.06,3.06 0 0 0 2.849997,-1.76 l 1.18,0.62 a 4.27,4.27 0 0 1 -3.999997,2.47 4,4 0 0 1 -3.07,-1.3 4.72,4.72 0 0 1 -1.19,-3.24 z m 1.62,-1 h 5.249997 a 2.72,2.72 0 0 0 -0.889997,-1.63 2.59,2.59 0 0 0 -1.75,-0.58 2.51,2.51 0 0 0 -1.71,0.58 2.79,2.79 0 0 0 -0.85,1.61 z"
     class="cls-10" />
  <path
     style="fill:#e26464"
     id="path64"
     d="m 104.0036,56.842208 v -1.33 h 2.39 v -2.65 l 1.44,-0.94 v 3.59 h 4.35 v 1.33 h -4.35 v 4.53 q 0,1.8 1.53,1.8 a 3,3 0 0 0 2.18,-1.06 l 0.54,1.25 a 3.72,3.72 0 0 1 -2.72,1.14 2.94,2.94 0 0 1 -2.22,-0.78 3.17,3.17 0 0 1 -0.75,-2.29 v -4.59 z"
     class="cls-10" />
  <path
     style="fill:#e26464"
     id="path66"
     d="m 115.0036,55.512208 h 1.65 l 3,6.48 2.62,-6.48 h 1.6 l -5.26,12.49 h -1.47 l 1.72,-4.19 z"
     class="cls-10" />
  <path
     style="fill:#e26464"
     id="path68"
     d="m 126.6436,63.132208 v -1.53 l 5.71,-2.69 -5.71,-2.68 v -1.53 l 7.18,3.44 v 1.54 z"
     class="cls-10" />
</svg>
