<svg enable-background="new 0 0 360 115" height="115" viewBox="0 0 360 115" width="360" xmlns="http://www.w3.org/2000/svg"><path clip-rule="evenodd" d="m0 103c0 6.627 5.373 12 12 12h336c6.627 0 12-5.373 12-12v-91c0-6.627-5.373-12-12-12h-336c-6.627 0-12 5.373-12 12z" fill="#cf0a2c" fill-rule="evenodd"/><g fill="#fff"><path d="m57.416 76.436c.128-2.112.256-5.248.256-8v-37.436h5.567v19.455h.128c1.984-3.456 5.568-5.696 10.559-5.696 7.68 0 13.119 6.399 13.055 15.807 0 11.071-6.976 16.575-13.887 16.575-4.48 0-8.063-1.728-10.367-5.824h-.192l-.256 5.12h-4.863zm5.823-12.415c0 .704.128 1.408.256 2.048 1.088 3.904 4.352 6.592 8.447 6.592 5.888 0 9.408-4.8 9.408-11.903 0-6.208-3.2-11.52-9.215-11.52-3.84 0-7.424 2.624-8.576 6.912-.128.64-.32 1.408-.32 2.304z"/><path d="m112.684 76.436-.448-3.904h-.192c-1.728 2.432-5.056 4.608-9.472 4.608-6.271 0-9.471-4.416-9.471-8.896 0-7.487 6.656-11.583 18.623-11.519v-.64c0-2.56-.704-7.167-7.039-7.167-2.88 0-5.888.896-8.063 2.304l-1.28-3.711c2.56-1.664 6.271-2.752 10.175-2.752 9.472 0 11.775 6.463 11.775 12.671v11.583c0 2.688.128 5.311.512 7.423zm-.832-15.807c-6.144-.128-13.119.96-13.119 6.975 0 3.648 2.432 5.375 5.312 5.375 4.032 0 6.591-2.56 7.487-5.183.192-.576.32-1.216.32-1.792z"/><path d="m127.315 31h5.631v45.437h-5.631z"/><path d="m142.271 70.676c1.664 1.088 4.607 2.24 7.423 2.24 4.096 0 6.016-2.048 6.016-4.608 0-2.688-1.6-4.16-5.76-5.696-5.567-1.983-8.191-5.055-8.191-8.767 0-4.992 4.032-9.087 10.688-9.087 3.136 0 5.887.896 7.615 1.92l-1.408 4.096c-1.216-.768-3.456-1.792-6.335-1.792-3.328 0-5.184 1.92-5.184 4.224 0 2.56 1.855 3.712 5.887 5.248 5.376 2.048 8.127 4.736 8.127 9.344 0 5.439-4.224 9.279-11.583 9.279-3.392 0-6.527-.832-8.704-2.111z"/><path d="m187.153 76.436-.448-3.904h-.192c-1.728 2.432-5.056 4.608-9.471 4.608-6.271 0-9.471-4.416-9.471-8.896 0-7.487 6.656-11.583 18.623-11.519v-.64c0-2.56-.704-7.167-7.04-7.167-2.879 0-5.887.896-8.063 2.304l-1.28-3.711c2.56-1.664 6.272-2.752 10.175-2.752 9.472 0 11.775 6.463 11.775 12.671v11.583c0 2.688.128 5.311.512 7.423zm-.832-15.807c-6.144-.128-13.119.96-13.119 6.975 0 3.648 2.432 5.375 5.312 5.375 4.031 0 6.592-2.56 7.487-5.183.192-.576.32-1.216.32-1.792z"/><path d="m201.74 53.846c0-3.2-.064-5.824-.256-8.383h4.928l.256 4.992h.191c1.729-2.944 4.608-5.696 9.728-5.696 4.224 0 7.424 2.56 8.768 6.208h.128c.96-1.728 2.176-3.072 3.456-4.032 1.855-1.408 3.903-2.176 6.847-2.176 4.096 0 10.176 2.688 10.176 13.439v18.239h-5.504v-17.536c0-5.952-2.176-9.535-6.72-9.535-3.199 0-5.695 2.368-6.655 5.12-.256.768-.448 1.792-.448 2.815v19.135h-5.503v-18.559c0-4.928-2.176-8.511-6.464-8.511-3.52 0-6.079 2.815-6.976 5.631-.319.832-.448 1.792-.448 2.752v18.687h-5.503v-22.59z"/><path d="m262.309 36.759c.063 1.92-1.344 3.456-3.584 3.456-1.983 0-3.392-1.536-3.392-3.456 0-1.984 1.472-3.52 3.52-3.52 2.112 0 3.456 1.536 3.456 3.52zm-6.272 39.677v-30.974h5.632v30.974z"/><path d="m293.276 71.636h-.128c-1.664 3.072-5.119 5.504-10.111 5.504-7.231 0-13.119-6.271-13.119-15.679 0-11.583 7.487-16.703 14.016-16.703 4.799 0 7.999 2.368 9.535 5.375h.128l.191-4.671h5.312c-.128 2.624-.191 5.312-.191 8.511v35.133h-5.632v-17.47zm0-13.631c0-.768-.063-1.664-.256-2.368-.832-3.456-3.84-6.4-8.063-6.4-5.823 0-9.344 4.928-9.344 11.903 0 6.144 2.944 11.52 9.151 11.52 3.648 0 6.784-2.24 8.063-6.144.256-.768.448-1.856.448-2.688v-5.823z"/><path d="m315.458 49.334c0 2.688-2.184 4.845-4.955 4.845-2.772 0-4.984-2.156-4.984-4.845 0-2.66 2.212-4.815 4.984-4.815s4.955 2.155 4.955 4.815zm-8.455.028c0 2.016 1.483 3.612 3.5 3.612 2.016 0 3.5-1.597 3.5-3.641 0-1.988-1.484-3.612-3.528-3.612-1.988.001-3.472 1.625-3.472 3.641zm2.884 2.268h-1.372v-4.452c.308-.056 1.036-.14 1.96-.14 1.008 0 1.456.14 1.792.336.28.196.476.532.476.98s-.42.84-1.036 1.008v.056c.505.168.784.504.925 1.148.14.644.224.896.308 1.063h-1.54c-.14-.168-.224-.56-.308-.951-.084-.448-.309-.673-.756-.673h-.448v1.625zm.056-2.548h.393c.504 0 .84-.195.84-.531 0-.364-.309-.561-.784-.561-.168 0-.336.028-.448.028v1.064z"/></g></svg>