<?xml version="1.0" encoding="UTF-8" standalone="no"?>
<svg xmlns:dc="http://purl.org/dc/elements/1.1/" xmlns:cc="http://creativecommons.org/ns#" xmlns:rdf="http://www.w3.org/1999/02/22-rdf-syntax-ns#" xmlns:svg="http://www.w3.org/2000/svg" xmlns="http://www.w3.org/2000/svg" viewBox="0 0 188.97333 240" height="240" width="188.97333" xml:space="preserve" id="svg2" version="1.1"><metadata id="metadata8"><rdf:RDF><cc:Work rdf:about=""><dc:format>image/svg+xml</dc:format><dc:type rdf:resource="http://purl.org/dc/dcmitype/StillImage"/></cc:Work></rdf:RDF></metadata><defs id="defs6"/><g transform="matrix(1.3333333,0,0,-1.3333333,0,240)" id="g10"><g transform="scale(0.1)" id="g12"><path id="path14" style="fill:#231f20;fill-opacity:1;fill-rule:nonzero;stroke:none" d="M 0,1799.99 V 5.78906 C 648.691,-52.8984 1417.33,337.02 1417.33,1062.98 c 0,249.79 0,737.01 0,737.01"/><path id="path16" style="fill:#ffffff;fill-opacity:1;fill-rule:nonzero;stroke:none" d="m 140.953,798.691 h 19.856 v 134.426 h 43.007 V 951.32 H 97.9414 v -18.203 h 42.9996"/><path id="path18" style="fill:#ffffff;fill-opacity:1;fill-rule:nonzero;stroke:none" d="m 244.516,864.152 c 0.207,16.922 9.101,24.926 23.679,25.121 14.571,-0.214 22.817,-7.91 23.043,-25.121 v -65.461 h 2.008 17.027 v 67.954 c 0.008,11.972 -3.582,22.035 -10.339,29.085 -6.774,7.043 -16.606,10.915 -28.602,10.915 -10.25,0.019 -19.434,-3.09 -26.816,-9.665 v 54.34 H 225.484 V 798.691 h 19.032"/><path id="path20" style="fill:#ffffff;fill-opacity:1;fill-rule:nonzero;stroke:none" d="m 377.582,889.914 c 10.102,-0.012 18.481,-5.574 22.156,-14.199 h -0.008 c 2.012,-4.977 2.477,-7.606 2.875,-14.367 h -50.042 c 0.39,6.761 0.851,9.39 2.863,14.367 3.644,8.613 12.047,14.187 22.156,14.199 z m 2.707,-92.473 c 0.106,0 0.219,0 0.328,0 17.75,0 28.164,5.864 38.664,16.454 l 1.504,1.503 -13.238,11.625 -1.32,-1.328 c -8.032,-7.925 -14.024,-11.039 -25.516,-11.109 -17.984,0.176 -27.43,10.816 -28.215,31.488 h 69.25 v 8.887 c 0,15.566 -4,28.477 -11.613,37.559 -7.606,9.089 -18.828,14.144 -32.551,14.125 -13.543,0.019 -24.785,-5.114 -32.422,-14.598 -7.652,-9.473 -11.75,-23.098 -11.75,-40.004 0,-18.469 4.516,-32.168 12.793,-41.27 8.266,-9.117 20.145,-13.351 34.086,-13.332"/><path id="path22" style="fill:#ffffff;fill-opacity:1;fill-rule:nonzero;stroke:none" d="m 212.973,638.262 0.39,2.328 H 193.52 l -0.34,-1.57 c -3.895,-17.43 -16.082,-28.418 -33.739,-28.489 -9.308,0 -18.183,3.59 -24.246,9.84 -8.769,8.949 -9.855,18.289 -9.867,49.527 0.012,31.25 1.098,40.59 9.86,49.543 6.07,6.258 14.945,9.829 24.253,9.829 17.645,-0.079 29.411,-11.008 33.317,-28.481 l 0.34,-1.578 h 20.289 l -0.426,2.348 c -5.055,28.793 -25.953,46 -53.52,45.91 -15.109,0 -29.019,-5.629 -39.414,-16.039 -14.636,-14.621 -14.582,-30.18 -14.562,-61.532 -0.02,-31.339 -0.074,-46.898 14.562,-61.527 10.395,-10.402 24.305,-16.031 39.414,-16.031 0.067,-0.012 0.129,-0.012 0.196,-0.012 27.261,0 48.492,17.184 53.336,45.934"/><path id="path24" style="fill:#ffffff;fill-opacity:1;fill-rule:nonzero;stroke:none" d="M 305.434,659.051 V 593.59 h 19.035 v 67.961 c 0.008,11.969 -3.578,22.027 -10.34,29.07 -6.762,7.051 -16.606,10.93 -28.613,10.918 -10.239,0.02 -19.422,-3.078 -26.801,-9.66 v 54.332 H 239.684 V 593.59 h 19.031 v 65.461 c 0.195,16.929 9.105,24.929 23.676,25.129 14.57,-0.219 22.812,-7.918 23.043,-25.129"/><path id="path26" style="fill:#ffffff;fill-opacity:1;fill-rule:nonzero;stroke:none" d="m 388.227,609.289 c -15.989,0.332 -21.344,4.731 -21.59,15.52 0.226,10.839 5.957,15.882 20.961,16.171 h 26.808 v -9.07 c 0.012,-8.332 -1.676,-13.59 -4.59,-16.289 -5.91,-5.699 -12.847,-6.32 -21.589,-6.332 z m -35.821,76.242 -1.121,-1.453 13.246,-12.18 1.317,1.852 c 5.847,8.09 11.347,10.73 24.254,10.852 18.308,-0.364 23.976,-6.321 24.304,-20.543 v -7.821 h -28.894 c -11.805,0 -21.184,-3 -27.66,-8.566 -6.481,-5.551 -9.852,-13.633 -9.825,-23.07 0.008,-8.571 2.836,-16.782 8.305,-22.282 6.895,-7.148 16.039,-10.019 30.434,-9.98 0.187,-0.012 0.367,-0.012 0.55,-0.012 11.825,0 19.692,2.313 27.09,8.5 v -7.226 h 2 17.028 v 71.707 c 0.027,11.55 -3.567,20.82 -10.938,27.019 -7.355,6.192 -18.133,9.211 -32.187,9.211 -16.883,0.09 -28.399,-3.578 -37.903,-16.008"/><path id="path28" style="fill:#ffffff;fill-opacity:1;fill-rule:nonzero;stroke:none" d="m 481.031,658.629 c 0.117,14.871 8.801,25.492 22.629,25.551 7.641,-0.09 10.801,-1.52 16.332,-6.93 l 1.43,-1.422 1.406,1.442 12.457,12.691 -1.398,1.398 c -7.629,7.68 -15.953,10.231 -26.055,10.18 -10.309,-0.008 -20.211,-3.699 -26.801,-10.207 v 8.957 H 462.004 V 593.59 h 19.027"/><path id="path30" style="fill:#ffffff;fill-opacity:1;fill-rule:nonzero;stroke:none" d="m 557.602,623.141 c 0,-7.993 2.3,-15.371 7.086,-20.813 4.765,-5.437 11.988,-8.75 21.218,-8.738 h 12.645 v 16.941 h -9.926 c -8.672,0.25 -11.707,4.231 -11.988,13.028 v 60.621 h 21.914 v 15.48 h -21.914 v 32.149 H 557.602 V 699.68 l -12.934,-0.02 v -15.48 h 12.934"/><path id="path32" style="fill:#ffffff;fill-opacity:1;fill-rule:nonzero;stroke:none" d="m 658.133,684.82 c 10.097,-0.019 18.48,-5.582 22.148,-14.211 2.012,-4.968 2.477,-7.597 2.871,-14.359 h -50.039 c 0.383,6.762 0.86,9.391 2.864,14.359 3.652,8.621 12.05,14.192 22.156,14.211 z m 43.203,-74.511 -13.234,11.613 -1.325,-1.332 c -8.023,-7.918 -14.023,-11.031 -25.515,-11.102 -17.996,0.184 -27.43,10.832 -28.215,31.5 h 69.254 v 8.871 c 0,15.571 -4,28.481 -11.61,37.563 -7.613,9.078 -18.828,14.137 -32.558,14.117 -13.535,0.031 -24.77,-5.109 -32.426,-14.598 -7.656,-9.472 -11.734,-23.089 -11.746,-40 0,-18.472 4.516,-32.171 12.789,-41.261 8.266,-9.11 20.148,-13.36 34.098,-13.352 0.105,0 0.218,0 0.324,0 17.75,0 28.164,5.871 38.664,16.461"/><path id="path34" style="fill:#ffffff;fill-opacity:1;fill-rule:nonzero;stroke:none" d="m 746.137,658.629 c 0.117,14.871 8.801,25.492 22.629,25.551 7.632,-0.09 10.8,-1.52 16.332,-6.93 l 1.418,-1.422 1.425,1.442 12.45,12.691 -1.399,1.398 c -7.633,7.68 -15.957,10.231 -26.047,10.18 -10.312,-0.008 -20.218,-3.699 -26.808,-10.207 v 8.957 H 727.113 V 593.59 h 19.024"/><path id="path36" style="fill:#ffffff;fill-opacity:1;fill-rule:nonzero;stroke:none" d="m 874.984,656.25 h -50.039 c 0.399,6.762 0.856,9.391 2.871,14.359 3.657,8.621 12.039,14.192 22.145,14.211 10.105,-0.019 18.5,-5.582 22.156,-14.211 2.012,-4.968 2.481,-7.597 2.867,-14.359 z m -25.023,45.289 c -13.535,0.031 -24.77,-5.109 -32.418,-14.598 -7.652,-9.472 -11.746,-23.089 -11.746,-40 0,-18.472 4.516,-32.171 12.789,-41.261 8.266,-9.11 20.152,-13.36 34.102,-13.352 0.109,0 0.218,0 0.328,0 17.742,0 28.156,5.871 38.652,16.461 l 1.504,1.52 -13.242,11.613 -1.317,-1.332 c -8.031,-7.918 -14.015,-11.031 -25.511,-11.102 -17.997,0.184 -27.446,10.832 -28.219,31.5 h 69.25 v 8.871 c 0,15.571 -3.996,28.481 -11.606,37.563 -7.609,9.078 -18.832,14.137 -32.566,14.117"/><path id="path38" style="fill:#ffffff;fill-opacity:1;fill-rule:nonzero;stroke:none" d="m 982.406,646.941 c 0.012,-9.91 -0.871,-19.48 -4.258,-26.25 -3.429,-6.722 -8.828,-10.91 -19.421,-11 -20.618,0.047 -23.672,17.098 -23.891,37.25 0.219,20.149 3.273,37.2 23.891,37.239 10.593,-0.09 15.992,-4.27 19.421,-10.989 3.387,-6.769 4.27,-16.339 4.258,-26.25 z m 0,99.27 V 691.68 c -7.902,7.832 -17.035,9.922 -27.015,9.859 -10.887,-0.008 -20.539,-3.66 -26.469,-9.559 -11.106,-11.191 -13.074,-28.82 -13.109,-45.039 0.035,-16.211 2.003,-33.839 13.109,-45.043 5.93,-5.898 15.582,-9.546 26.469,-9.558 0.14,-0.012 0.269,-0.012 0.402,-0.012 9.855,0 18.977,2.32 26.816,10.223 v -8.949 h 2.004 16.817 v 152.609"/><path id="path40" style="fill:#ffffff;fill-opacity:1;fill-rule:nonzero;stroke:none" d="M 135.344,388.5 V 541.109 H 115.477 V 388.5 h 2.007"/><path id="path42" style="fill:#ffffff;fill-opacity:1;fill-rule:nonzero;stroke:none" d="m 183.152,453.73 c 0.211,17.18 8.899,25.149 23.469,25.36 14.57,-0.219 23.02,-7.942 23.25,-25.36 V 388.5 h 2.012 17.023 v 67.73 c 0.012,12.27 -3.484,22.52 -11.258,30.051 -6.675,6.68 -16.238,10.16 -27.695,10.16 -10.23,0.008 -19.515,-3.222 -26.801,-9.671 v 8.421 H 164.117 V 388.5 h 19.035"/><path id="path44" style="fill:#ffffff;fill-opacity:1;fill-rule:nonzero;stroke:none" d="m 325.156,450.301 -16.496,1.469 c -12.562,1.289 -15.902,5.218 -16.133,13.031 0.114,9.168 6.391,14.687 20.969,14.91 10.34,-0.012 19.258,-2.441 26.125,-7.731 l 1.387,-1.07 12.613,12.621 -1.711,1.399 c -9.687,7.922 -23.289,11.5 -38.203,11.5 -22.5,-0.008 -39.746,-11.91 -39.785,-32.051 -0.18,-17.93 12.031,-28.078 32.519,-29.551 l 16.907,-1.449 c 11.468,-1.277 15.066,-5.027 15.285,-13.039 -0.024,-10.59 -8.699,-15.981 -25.34,-16.168 -12.414,0.019 -22.816,3.219 -30.496,11.289 l -1.414,1.5 -12.906,-12.922 1.464,-1.41 c 11.645,-11.25 25.84,-15.391 43.36,-15.391 0.066,0 0.133,0 0.195,0 25.324,0.032 43.707,12.082 43.746,33.313 0.184,20.32 -13.851,28.32 -32.086,29.75"/><path id="path46" style="fill:#ffffff;fill-opacity:1;fill-rule:nonzero;stroke:none" d="m 423.41,405.43 h -9.93 c -8.664,0.242 -11.703,4.23 -11.988,13.031 v 60.629 l 21.918,-0.012 v 15.481 h -21.918 v 32.14 h -19.019 v -32.14 h -12.95 v -15.481 h 12.934 l 0.016,-61.039 c 0,-7.988 2.297,-15.379 7.074,-20.809 4.738,-5.429 11.957,-8.742 21.133,-8.742 0.031,0 0.054,0 0.086,0 h 12.644"/><path id="path48" style="fill:#ffffff;fill-opacity:1;fill-rule:nonzero;stroke:none" d="m 458.051,519.371 c 6.328,0 11.5,5.168 11.5,11.5 0,6.328 -5.172,11.5 -11.5,11.5 -6.324,0 -11.5,-5.172 -11.5,-11.5 0,-6.332 5.176,-11.5 11.5,-11.5"/><path id="path50" style="fill:#ffffff;fill-opacity:1;fill-rule:nonzero;stroke:none" d="M 467.457,495.191 H 448.434 V 388.5 h 19.023"/><path id="path52" style="fill:#ffffff;fill-opacity:1;fill-rule:nonzero;stroke:none" d="m 543.648,479.078 v 15.481 h -21.921 l 0.007,32.14 h -19.027 v -32.14 h -12.949 v -15.481 h 12.949 v -61.039 c 0,-7.988 2.301,-15.379 7.074,-20.809 4.75,-5.429 11.953,-8.742 21.145,-8.742 0.031,0 0.054,0 0.086,0 h 12.636 v 16.942 h -9.929 c -8.672,0.242 -11.703,4.23 -11.985,13.031 v 60.629"/><path id="path54" style="fill:#ffffff;fill-opacity:1;fill-rule:nonzero;stroke:none" d="m 633.582,429.93 c -0.211,-17.141 -9.105,-25.129 -23.676,-25.328 -14.558,0.218 -22.804,7.898 -23.043,25.328 v 65.261 h -19.035 v -67.543 c -0.012,-12.226 3.258,-22.687 11.055,-30.25 6.687,-6.687 16.445,-10.168 27.898,-10.16 0.028,0 0.055,0 0.082,0 10.223,0 19.625,3.391 26.93,9.883 v -8.633 h 1.992 16.832 v 106.703 h -19.035"/><path id="path56" style="fill:#ffffff;fill-opacity:1;fill-rule:nonzero;stroke:none" d="m 706.688,526.699 h -19.036 v -32.14 h -12.933 v -15.481 h 12.933 v -61.039 c 0,-7.988 2.301,-15.379 7.075,-20.809 4.75,-5.429 11.957,-8.742 21.144,-8.742 0.031,0 0.055,0 0.086,0 h 12.645 v 16.942 h -9.934 c -8.672,0.242 -11.699,4.23 -11.98,13.031 v 60.629 l 21.914,-0.012 v 15.481 h -21.914"/><path id="path58" style="fill:#ffffff;fill-opacity:1;fill-rule:nonzero;stroke:none" d="M 813.617,451.148 H 763.57 c 0.395,6.762 0.86,9.383 2.871,14.364 3.657,8.617 12.051,14.179 22.161,14.199 10.101,-0.02 18.5,-5.582 22.156,-14.231 2,-4.96 2.465,-7.589 2.859,-14.332 z m -25.015,45.293 c -13.547,0.028 -24.782,-5.109 -32.43,-14.601 -7.656,-9.469 -11.742,-23.102 -11.742,-40.008 -0.012,-18.461 4.508,-32.16 12.781,-41.25 8.273,-9.121 20.148,-13.363 34.094,-13.352 0.105,0 0.222,0 0.328,0 17.754,0 28.168,5.872 38.668,16.461 l 1.508,1.5 -13.246,11.629 -1.325,-1.32 c -8.019,-7.93 -14.015,-11.031 -25.508,-11.109 -17.992,0.168 -27.433,10.82 -28.226,31.48 h 69.254 v 8.891 c 0,15.566 -3.996,28.476 -11.602,37.558 -7.609,9.078 -18.828,14.141 -32.554,14.121"/><path id="path60" style="fill:#ffffff;fill-opacity:1;fill-rule:nonzero;stroke:none" d="m 123.277,327.68 c -4.726,-5.43 -6.964,-12.821 -6.964,-20.809 v -17.402 h -13.149 v -15.481 h 13.149 v -90.597 h 19.035 v 90.597 h 21.914 v 15.481 h -21.914 v 16.992 c 0.293,8.859 3.121,12.777 11.781,13.039 h 10.133 v 16.93 h -12.856 c -9.222,0.019 -16.422,-3.301 -21.129,-8.75"/><path id="path62" style="fill:#ffffff;fill-opacity:1;fill-rule:nonzero;stroke:none" d="m 238.426,236.738 c 0.051,-11.437 -0.785,-23.668 -7.555,-30.316 -4.398,-4.391 -10.558,-6.922 -17.367,-6.922 -6.813,0.02 -12.731,2.5 -17.168,6.922 -6.785,6.668 -7.809,18.906 -7.758,30.316 -0.051,11.422 0.985,23.653 7.758,30.313 4.437,4.429 10.355,6.918 17.168,6.929 6.809,0 12.957,-2.519 17.367,-6.929 6.77,-6.641 7.606,-18.86 7.555,-30.313 z m -24.922,54.602 c -13.024,0.012 -23.422,-4.82 -30.848,-12.27 -11.035,-11.269 -13.113,-26.34 -13.113,-42.332 0,-15.976 2.078,-31.058 13.105,-42.308 7.434,-7.469 17.832,-12.301 30.856,-12.289 0.012,0 0.027,0 0.043,0 12.988,0 23.379,4.828 30.801,12.281 l -1.407,1.406 1.426,-1.398 c 11.012,11.25 13.094,26.332 13.094,42.308 0,15.992 -2.082,31.063 -13.094,42.313 -7.449,7.469 -17.855,12.301 -30.863,12.289"/><path id="path64" style="fill:#ffffff;fill-opacity:1;fill-rule:nonzero;stroke:none" d="m 326.438,291.34 c -10.313,-0.008 -20.215,-3.699 -26.805,-10.219 v 8.981 H 280.598 V 183.391 h 19.035 v 65.039 c 0.113,14.89 8.801,25.492 22.633,25.558 7.636,-0.09 10.781,-1.527 16.328,-6.937 l 1.422,-1.43 1.422,1.438 12.445,12.703 -1.403,1.398 c -7.625,7.692 -15.949,10.231 -26.042,10.18"/><path id="path66" style="fill:#ffffff;fill-opacity:1;fill-rule:nonzero;stroke:none" d="M 418.785,183.391 H 438.66 V 336.012 H 418.785"/><path id="path68" style="fill:#ffffff;fill-opacity:1;fill-rule:nonzero;stroke:none" d="m 462.422,317.82 h 42.996 V 183.391 h 19.875 V 317.82 h 42.992 v 18.192 H 462.422"/><path id="path70" style="fill:#ffffff;fill-opacity:1;fill-rule:nonzero;stroke:none" d="M 868.34,1631.68 H 654.551 c -33.953,0 -66.403,-12.42 -91.371,-34.96 -26.059,-23.4 -40.379,-54.91 -40.328,-88.7 v -122.6 c 0,-34.89 13.574,-64.75 40.343,-88.74 24.84,-22.52 57.285,-34.92 91.356,-34.92 H 868.34 c 14.656,0 25.285,10.49 25.285,24.95 v 22.4 c 0,14.44 -10.629,24.94 -25.285,24.94 H 655.371 c -34.328,0.54 -60.234,22.63 -60.234,51.37 v 122.6 c 0,30.73 30.906,51.38 59.773,51.38 h 0.453 212.977 c 14.418,0 25.285,10.73 25.285,24.94 v 22.4 c 0,14.45 -10.629,24.94 -25.285,24.94"/><path id="path72" style="fill:#ffffff;fill-opacity:1;fill-rule:nonzero;stroke:none" d="m 1282.42,1631.68 h -253.09 c -64.877,0 -95.1,-30.22 -95.1,-95.1 v -27.7 c 0,-63.92 30.223,-93.7 95.1,-93.7 h 195.1 c 13.01,0 22.11,-9.09 22.11,-22.1 v -36.92 c 0,-12.82 -9.3,-22.11 -22.11,-22.11 H 966.262 c -14.461,0 -24.946,-10.5 -24.946,-24.94 v -22.4 c 0,-14.46 10.485,-24.95 24.946,-24.95 h 257.458 c 64.88,0 95.1,30.22 95.1,95.1 v 35.51 c 0,64.88 -30.22,95.1 -95.1,95.1 h -195.09 c -12.82,0 -22.12,9.3 -22.12,22.11 v 27.71 c 0,12.81 9.3,22.11 22.12,22.11 h 253.79 c 14.22,0 24.94,10.73 24.94,24.94 v 22.4 c 0,14.45 -10.49,24.94 -24.94,24.94"/><path id="path74" style="fill:#ffffff;fill-opacity:1;fill-rule:nonzero;stroke:none" d="m 181.418,1559.4 h 166.254 c 28.969,0 60.234,-19.65 60.234,-51.38 v -122.6 c 0,-31.73 -31.265,-51.37 -60.234,-51.37 H 181.418 Z m 0,240.59 h -72.281 v -514.36 c 0,-13.38 11.105,-23.87 25.285,-23.87 h 213.797 c 33.922,0 65.609,12.07 91.625,34.91 25.636,22.52 40.347,54.86 40.347,88.75 v 122.6 c 0,33.86 -14.328,65.36 -40.339,88.72 -25.016,22.53 -57.555,34.94 -91.633,34.94 H 181.418"/></g></g></svg>