<?xml version="1.0" encoding="UTF-8"?>
<svg width="572px" height="135px" viewBox="0 0 572 135" version="1.1" xmlns="http://www.w3.org/2000/svg" xmlns:xlink="http://www.w3.org/1999/xlink">
    <!-- Generator: Sketch 43.1 (39012) - http://www.bohemiancoding.com/sketch -->
    <title>Group</title>
    <desc>Created with Sketch.</desc>
    <defs></defs>
    <g id="Page-1" stroke="none" stroke-width="1" fill="none" fill-rule="evenodd">
        <g id="Artboard-2" transform="translate(-173.000000, -78.000000)" fill="#007AFF">
            <g id="Group-3" transform="translate(173.000000, 76.000000)">
                <g id="Group" transform="translate(0.000000, 2.000000)">
                    <g id="Group-2">
                        <path d="M163.643386,119.25 L163.643386,16.29 L204.069213,16.29 C231.06789,16.29 246.083197,27.234 246.083197,48.978 L246.083197,49.554 C246.083197,64.242 238.286787,72.45 227.458441,76.626 L252.147071,119.25 L220.961433,119.25 L200.02663,82.386 L193.096488,82.386 L193.096488,119.25 L163.643386,119.25 Z M193.096488,63.234 L202.625433,63.234 C212.587512,63.234 217.496362,59.058 217.496362,50.706 L217.496362,50.13 C217.496362,41.778 212.298756,38.466 202.769811,38.466 L193.096488,38.466 L193.096488,63.234 Z M282.466441,120.978 C268.894913,120.978 256.911543,114.354 256.911543,98.37 C256.911543,80.658 271.92685,73.746 297.048614,73.746 L304.267512,73.746 L304.267512,72.018 C304.267512,64.818 302.534976,60.066 294.305433,60.066 C287.230913,60.066 284.63211,64.242 284.054598,68.994 L259.799102,68.994 C260.954126,50.85 275.247543,41.922 295.893591,41.922 C316.684016,41.922 329.966787,50.418 329.966787,70.434 L329.966787,119.25 L304.845024,119.25 L304.845024,110.466 C301.235575,115.938 294.594189,120.978 282.466441,120.978 Z M291.417874,103.554 C298.78115,103.554 304.267512,99.378 304.267512,92.898 L304.267512,88.29 L297.481748,88.29 C287.086535,88.29 282.466441,90.306 282.466441,96.498 C282.466441,100.818 285.354,103.554 291.417874,103.554 Z M372.702661,120.978 C355.232929,120.978 340.939512,108.45 340.939512,82.386 L340.939512,81.234 C340.939512,55.602 355.088551,41.922 372.991417,41.922 C384.830409,41.922 391.904929,46.962 396.236268,54.594 L396.236268,10.818 L422.079921,10.818 L422.079921,119.25 L396.236268,119.25 L396.236268,107.01 C392.482441,114.786 384.10852,120.978 372.702661,120.978 Z M381.798472,101.25 C391.183039,101.25 396.958157,94.77 396.958157,81.954 L396.958157,80.802 C396.958157,68.13 391.616173,61.362 382.087228,61.362 C372.413906,61.362 367.216299,67.842 367.216299,80.946 L367.216299,82.098 C367.216299,94.77 372.847039,101.25 381.798472,101.25 Z M458.607543,120.978 C445.036016,120.978 433.052646,114.354 433.052646,98.37 C433.052646,80.658 448.067953,73.746 473.189717,73.746 L480.408614,73.746 L480.408614,72.018 C480.408614,64.818 478.676079,60.066 470.446535,60.066 C463.372016,60.066 460.773213,64.242 460.195701,68.994 L435.940205,68.994 C437.095228,50.85 451.388646,41.922 472.034693,41.922 C492.825118,41.922 506.10789,50.418 506.10789,70.434 L506.10789,119.25 L480.986126,119.25 L480.986126,110.466 C477.376677,115.938 470.735291,120.978 458.607543,120.978 Z M467.558976,103.554 C474.922252,103.554 480.408614,99.378 480.408614,92.898 L480.408614,88.29 L473.62285,88.29 C463.227638,88.29 458.607543,90.306 458.607543,96.498 C458.607543,100.818 461.495102,103.554 467.558976,103.554 Z M520.834441,119.25 L546.678094,119.25 L546.678094,83.538 C546.678094,71.442 555.340772,66.546 571.077969,66.978 L571.077969,42.93 C559.383354,42.786 551.442567,47.682 546.678094,58.914 L546.678094,43.938 L520.834441,43.938 L520.834441,119.25 Z" id="Radar"></path>
                        <polygon id="Shape" points="55.269685 0 0 134.824155 55.269685 112.197255 110.53937 134.963057"></polygon>
                    </g>
                </g>
            </g>
        </g>
    </g>
</svg>